<svg id="Layer_1" data-name="Layer 1" xmlns="http://www.w3.org/2000/svg" viewBox="0 0 987.01 986.72"><defs><style>.cls-1{fill:#fff;stroke:#000;stroke-miterlimit:10;stroke-width:7px;}</style></defs><path class="cls-1" d="M283.31,15.75,277,21.3l-.57,127.44-.58,127.45H150.51c-137.4,0-133.76-.38-138.54,11.29-2.87,7.08-1.15,15.88,4.21,20.48,3.63,3.44,10.33,3.64,131.85,4.21l128,.38V687.42L148.6,688l-127.44.57-5.55,6.31q-11.19,12.35,0,23.54L21.16,724H275.85l.58,127.45L277,978.87l6.31,5.55c7.65,6.89,15.5,7.27,22.77,1l5.36-4.59,1-128,1-127.83,188.11-.57L689.39,724V849.33c0,137.59-.38,133.95,11.29,138.74,7.46,3.06,16.46,1,21.24-5.17,3.83-4.78,3.83-7.46,3.83-131.85V724H852.81c125.53,0,127.06,0,132-4,4.21-3.25,5-5.55,5-13,0-7.27-1-10-5-13.78l-5-4.59L852.81,688l-127.06-.58V312.55l128-.38c122.85-.57,128.21-.77,132-4.21,4-3.63,5.55-15.88,2.87-23.15-3.25-8.61-4.78-8.61-137.59-8.61H725.73V21.3l-5.55-5.55c-8.8-8.61-23.54-6.12-28.51,5-1.72,3.63-2.3,37.12-2.3,130.12V276.19h-377V21.3l-5.55-5.55Q295.65,4.54,283.31,15.75ZM689.37,500.08V687.61h-377V312.55h377V500.08Z" transform="translate(-6.51 -6.65)"/><path class="cls-1" d="M476.77,414.73C434.1,427,406.16,470.8,413.43,513.86c12.44,72.72,101.23,99.7,152.32,46.5,40.57-42.48,27-113.29-26.79-140.08-13.2-6.51-15.69-7.08-33.87-7.46C492.85,412.43,482.32,413,476.77,414.73ZM522.13,452a53.13,53.13,0,0,1,25.64,24.5c3.83,7.27,4.78,12.06,4.78,23.54s-1,16.27-4.78,23.54c-9.38,18.37-25.45,27.94-47.08,28.13-10.72,0-15.5-1-23.34-5-38.46-19.14-38.46-74.25,0-93.38C489.79,447.07,509.88,446.5,522.13,452Z" transform="translate(-6.51 -6.65)"/><path class="cls-1" d="M72.24,64.54A17.83,17.83,0,0,0,64,72.19c-5.17,11.48-4,13.59,27.75,45.55l30,30.23-30,30.23c-32.15,32.34-33.3,34.45-27.17,46.31C68.22,231.4,78,235,85.83,232.16,88.89,231,104,217.43,119.7,201.93l28.13-28.13,28.32,28.13c15.5,15.31,30,28.89,32.53,30.23,12.82,6.31,28.32-8.8,23.15-22.77-1.15-2.68-14.54-17.61-30-33.29L173.66,148l28.13-28.32c15.5-15.5,28.89-30.43,30-33.11,5.17-14-10.33-29.08-23.15-22.77-2.49,1.34-17,14.93-32.53,30.23l-28.32,28.13L119.7,94C95.21,69.71,85.06,61.67,79.32,61.86A68.47,68.47,0,0,0,72.24,64.54Z" transform="translate(-6.51 -6.65)"/><path class="cls-1" d="M426.06,63.78c-6.12,2.49-10.33,9.57-10.33,17,0,5.93,2.87,9.57,30,36.93l30,30.23-30,30.23c-26.41,26.6-30,31-30,36.55,0,8.23,2.68,13,9.76,16.65,10.14,5.17,14.35,2.49,44.78-27.94,15.88-15.88,29.47-28.7,30.62-28.7s14.73,12.82,30.62,28.7c30.42,30.42,34.63,33.1,44.78,27.94,7.08-3.63,9.76-8.42,9.76-16.65,0-5.55-3.64-9.95-30-36.55L526,148l30-30.23c26.41-26.6,30-31,30-36.55,0-8.23-2.68-13-9.76-16.65-10.14-5.17-14.35-2.49-44.78,27.94-15.88,15.88-29.47,28.7-30.62,28.7-1,0-14.73-12.82-30.62-28.7C440.8,63,435.63,59.57,426.06,63.78Z" transform="translate(-6.51 -6.65)"/><path class="cls-1" d="M833.47,64.73C793.86,73.34,764,110.46,764,150.84c.19,24.68,8.42,44,26.6,62.38,13.59,13.4,26.79,20.86,43.82,24.49,49,10.33,96.83-22.39,105.82-72.33,8.23-46.31-24.68-92.81-71.76-101.42C854.33,61.29,848.39,61.48,833.47,64.73Zm35.78,36.55c19.71,5.74,36.36,28.51,36.36,49.56,0,11.48-5.74,25.83-14,34.83-12,13.2-20.48,16.84-38.65,16.84-13.4,0-16.65-.77-25.64-5.74-17.22-9.38-26.6-25.64-26.79-45.93-.19-21.43,14.16-41.91,34.64-49C847.82,97.46,856.05,97.27,869.25,101.28Z" transform="translate(-6.51 -6.65)"/><path class="cls-1" d="M63.25,417c-6.51,3.44-9.19,8.23-9.19,16.27,0,5.55,3.63,9.95,30,36.55l30,30.23-30,30.23c-26.41,26.6-30,31-30,36.55A28.83,28.83,0,0,0,56,576.81c2.87,5.36,12.82,9.76,18.94,8.42,3.06-.57,16.84-12.25,35.4-30l30.24-28.89L170,555.77c28.51,28.32,29.66,29.47,37.31,29.47,10.52,0,17-7.27,17-18.56,0-7.66-1-9-29.09-37.32L166.2,500.08l29.09-29.47c27.94-28.13,29.09-29.66,29.09-37.12,0-11.29-6.51-18.56-17-18.56-7.65,0-8.8,1.15-37.51,29.66l-29.66,29.47-28.13-27.94C79.32,413.77,74.54,410.9,63.25,417Z" transform="translate(-6.51 -6.65)"/><path class="cls-1" d="M788.88,415.3c-7.46,2.87-11.48,9-11.48,17.6,0,8.42.19,8.8,29.09,37.89l29.09,29.28-29.09,29.28C778.36,557.67,777.4,559,777.4,566.67c0,11.29,6.51,18.56,17,18.56,7.65,0,8.8-1.15,37.51-29.66l29.66-29.66,19.52,19.33c42.29,41.72,45.73,44,56.83,38.27,7.08-3.63,9.76-8.42,9.76-16.65,0-5.55-3.64-10-30-36.55l-30-30.23,30-30.23c31.38-31.77,32.53-33.68,28.13-45.16-1-2.68-4.4-6.12-7.65-7.84-11.1-5.74-15.69-2.87-47.46,28.32l-29.28,28.89L832.32,445C803.23,416.07,797.3,411.86,788.88,415.3Z" transform="translate(-6.51 -6.65)"/><path class="cls-1" d="M486.53,771.81C446,779.27,415.92,812,412.47,852.18c-4.21,50.52,37.51,95.68,88.41,95.68s92.62-45.35,88.41-95.68c-3.64-43.44-38.46-77.69-82.67-81.14A84.94,84.94,0,0,0,486.53,771.81Zm30.62,37.5c13.78,4,28.7,18.75,33.49,33.11,14.74,44.59-31.38,84.2-73.48,63.15-17-8.61-26.6-22.77-28.32-41.91-1.53-16.27,3.25-29.09,15.69-41.33C479.45,807.21,496.29,803.19,517.15,809.31Z" transform="translate(-6.51 -6.65)"/><path class="cls-1" d="M846.48,772c-5.55,1-15.69,4.4-22.39,7.46C779.31,800.89,760.75,856,783.33,900.4c5.74,11.1,23.35,29.28,35.21,36,53.2,30.43,121.32-2.87,131.27-64.3,7.27-45.74-23.73-89.56-70.8-99.51C864.85,769.7,861.41,769.51,846.48,772Zm38.65,40.18c31.38,15.69,39.42,56.26,16.08,81.52-12.06,13-20.48,16.65-38.66,16.84-18,0-26.41-3.25-38.46-15.31-14.35-14.35-18.37-38.85-9.57-57.41C827.34,810.65,859.11,799.17,885.13,812.18Z" transform="translate(-6.51 -6.65)"/></svg>