<svg id="Layer_1" data-name="Layer 1" xmlns="http://www.w3.org/2000/svg" xmlns:xlink="http://www.w3.org/1999/xlink" viewBox="0 0 135 135"><defs><style>.cls-1,.cls-2,.cls-3{fill:none;}.cls-1{clip-rule:evenodd;}.cls-3{fill-rule:evenodd;}.cls-4{clip-path:url(#clip-path);}.cls-5{clip-path:url(#clip-path-2);}.cls-6{clip-path:url(#clip-path-3);}.cls-7{clip-path:url(#clip-path-4);}.cls-8{clip-path:url(#clip-path-6);}.cls-9{clip-path:url(#clip-path-7);}.cls-10{clip-path:url(#clip-path-8);}.cls-11{clip-path:url(#clip-path-10);}.cls-12{clip-path:url(#clip-path-11);}.cls-13{clip-path:url(#clip-path-12);}.cls-14{clip-path:url(#clip-path-13);}.cls-15{clip-path:url(#clip-path-15);}.cls-16{clip-path:url(#clip-path-16);}.cls-17{clip-path:url(#clip-path-17);}.cls-18{clip-path:url(#clip-path-18);}.cls-19{clip-path:url(#clip-path-19);}.cls-20{clip-path:url(#clip-path-20);}.cls-21{clip-path:url(#clip-path-21);}.cls-22{clip-path:url(#clip-path-22);}.cls-23{clip-path:url(#clip-path-23);}.cls-24{clip-path:url(#clip-path-24);}.cls-25{clip-path:url(#clip-path-25);}.cls-26{clip-path:url(#clip-path-26);}.cls-27{clip-path:url(#clip-path-27);}.cls-28{clip-path:url(#clip-path-28);}.cls-29{clip-path:url(#clip-path-29);}.cls-30{clip-path:url(#clip-path-30);}.cls-31{clip-path:url(#clip-path-31);}.cls-32{clip-path:url(#clip-path-32);}.cls-33{clip-path:url(#clip-path-33);}.cls-34{clip-path:url(#clip-path-34);}.cls-35{clip-path:url(#clip-path-35);}.cls-36{clip-path:url(#clip-path-36);}.cls-37{clip-path:url(#clip-path-37);}.cls-38{clip-path:url(#clip-path-38);}.cls-39{clip-path:url(#clip-path-39);}.cls-40{clip-path:url(#clip-path-40);}.cls-41{clip-path:url(#clip-path-41);}.cls-42{clip-path:url(#clip-path-42);}.cls-43{clip-path:url(#clip-path-43);}.cls-44{clip-path:url(#clip-path-44);}.cls-45{clip-path:url(#clip-path-45);}.cls-46{clip-path:url(#clip-path-46);}.cls-47{clip-path:url(#clip-path-47);}.cls-48{clip-path:url(#clip-path-48);}.cls-49{clip-path:url(#clip-path-49);}.cls-50{clip-path:url(#clip-path-50);}.cls-51{clip-path:url(#clip-path-51);}.cls-52{clip-path:url(#clip-path-52);}.cls-53{clip-path:url(#clip-path-53);}.cls-54{clip-path:url(#clip-path-54);}.cls-55{clip-path:url(#clip-path-55);}.cls-56{clip-path:url(#clip-path-56);}.cls-57{clip-path:url(#clip-path-57);}.cls-58{clip-path:url(#clip-path-58);}.cls-59{clip-path:url(#clip-path-59);}.cls-60{clip-path:url(#clip-path-60);}.cls-61{clip-path:url(#clip-path-61);}.cls-62{clip-path:url(#clip-path-62);}.cls-63{clip-path:url(#clip-path-63);}.cls-64{clip-path:url(#clip-path-64);}.cls-65{clip-path:url(#clip-path-65);}.cls-66{clip-path:url(#clip-path-66);}.cls-67{clip-path:url(#clip-path-67);}.cls-68{clip-path:url(#clip-path-68);}.cls-69{fill:#e44462;}.cls-70{clip-path:url(#clip-path-69);}.cls-71{fill:#bc3b5b;}.cls-72{clip-path:url(#clip-path-71);}.cls-73{fill:#46494a;}.cls-74{clip-path:url(#clip-path-73);}.cls-75{clip-path:url(#clip-path-75);}.cls-76{clip-path:url(#clip-path-77);}.cls-77{fill:#3bb878;}.cls-78{clip-path:url(#clip-path-79);}.cls-79{fill:#259958;}.cls-80{clip-path:url(#clip-path-81);}.cls-81{clip-path:url(#clip-path-83);}.cls-82{fill:#fff;}.cls-83{clip-path:url(#clip-path-85);}.cls-84{clip-path:url(#clip-path-87);}.cls-85{clip-path:url(#clip-path-88);}.cls-86{clip-path:url(#clip-path-89);}.cls-87{clip-path:url(#clip-path-90);}.cls-88{clip-path:url(#clip-path-91);}.cls-89{clip-path:url(#clip-path-92);}.cls-90{clip-path:url(#clip-path-93);}.cls-91{clip-path:url(#clip-path-94);}.cls-92{clip-path:url(#clip-path-95);}.cls-93{clip-path:url(#clip-path-96);}.cls-94{clip-path:url(#clip-path-97);}.cls-95{clip-path:url(#clip-path-98);}.cls-96{clip-path:url(#clip-path-99);}.cls-97{clip-path:url(#clip-path-100);}.cls-98{clip-path:url(#clip-path-101);}.cls-99{clip-path:url(#clip-path-102);}.cls-100{clip-path:url(#clip-path-103);}.cls-101{clip-path:url(#clip-path-104);}.cls-102{clip-path:url(#clip-path-105);}.cls-103{clip-path:url(#clip-path-106);}.cls-104{clip-path:url(#clip-path-107);}.cls-105{clip-path:url(#clip-path-108);}.cls-106{clip-path:url(#clip-path-109);}.cls-107{clip-path:url(#clip-path-110);}.cls-108{clip-path:url(#clip-path-111);}.cls-109{clip-path:url(#clip-path-112);}.cls-110{clip-path:url(#clip-path-113);}.cls-111{clip-path:url(#clip-path-114);}.cls-112{clip-path:url(#clip-path-115);}.cls-113{clip-path:url(#clip-path-116);}.cls-114{clip-path:url(#clip-path-117);}.cls-115{clip-path:url(#clip-path-118);}.cls-116{clip-path:url(#clip-path-119);}.cls-117{clip-path:url(#clip-path-120);}.cls-118{clip-path:url(#clip-path-121);}.cls-119{clip-path:url(#clip-path-122);}.cls-120{clip-path:url(#clip-path-123);}.cls-121{clip-path:url(#clip-path-124);}.cls-122{clip-path:url(#clip-path-125);}.cls-123{clip-path:url(#clip-path-127);}.cls-124{clip-path:url(#clip-path-128);}.cls-125{clip-path:url(#clip-path-129);}.cls-126{clip-path:url(#clip-path-130);}.cls-127{clip-path:url(#clip-path-131);}.cls-128{clip-path:url(#clip-path-132);}.cls-129{clip-path:url(#clip-path-133);}.cls-130{clip-path:url(#clip-path-134);}.cls-131{clip-path:url(#clip-path-135);}.cls-132{clip-path:url(#clip-path-136);}.cls-133{clip-path:url(#clip-path-137);}.cls-134{clip-path:url(#clip-path-138);}.cls-135{clip-path:url(#clip-path-139);}.cls-136{clip-path:url(#clip-path-140);}.cls-137{clip-path:url(#clip-path-141);}.cls-138{clip-path:url(#clip-path-142);}.cls-139{clip-path:url(#clip-path-143);}.cls-140{clip-path:url(#clip-path-144);}.cls-141{clip-path:url(#clip-path-145);}.cls-142{clip-path:url(#clip-path-146);}.cls-143{clip-path:url(#clip-path-148);}.cls-144{clip-path:url(#clip-path-149);}.cls-145{clip-path:url(#clip-path-150);}.cls-146{clip-path:url(#clip-path-151);}.cls-147{clip-path:url(#clip-path-152);}.cls-148{clip-path:url(#clip-path-153);}.cls-149{clip-path:url(#clip-path-154);}.cls-150{clip-path:url(#clip-path-155);}.cls-151{clip-path:url(#clip-path-156);}.cls-152{clip-path:url(#clip-path-157);}.cls-153{clip-path:url(#clip-path-158);}.cls-154{clip-path:url(#clip-path-160);}.cls-155{clip-path:url(#clip-path-161);}.cls-156{clip-path:url(#clip-path-162);}.cls-157{clip-path:url(#clip-path-163);}.cls-158{clip-path:url(#clip-path-165);}.cls-159{clip-path:url(#clip-path-166);}.cls-160{clip-path:url(#clip-path-167);}.cls-161{clip-path:url(#clip-path-168);}.cls-162{clip-path:url(#clip-path-170);}.cls-163{clip-path:url(#clip-path-171);}.cls-164{clip-path:url(#clip-path-172);}.cls-165{clip-path:url(#clip-path-173);}.cls-166{clip-path:url(#clip-path-175);}.cls-167{clip-path:url(#clip-path-176);}.cls-168{clip-path:url(#clip-path-177);}.cls-169{clip-path:url(#clip-path-178);}.cls-170{clip-path:url(#clip-path-180);}.cls-171{clip-path:url(#clip-path-181);}.cls-172{clip-path:url(#clip-path-182);}.cls-173{clip-path:url(#clip-path-183);}.cls-174{clip-path:url(#clip-path-185);}.cls-175{clip-path:url(#clip-path-186);}.cls-176{clip-path:url(#clip-path-187);}.cls-177{clip-path:url(#clip-path-188);}.cls-178{clip-path:url(#clip-path-190);}.cls-179{clip-path:url(#clip-path-191);}.cls-180{clip-path:url(#clip-path-192);}.cls-181{clip-path:url(#clip-path-193);}.cls-182{clip-path:url(#clip-path-195);}.cls-183{clip-path:url(#clip-path-196);}.cls-184{clip-path:url(#clip-path-197);}.cls-185{clip-path:url(#clip-path-198);}</style><clipPath id="clip-path"><path class="cls-1" d="M662.81,422.33a40.39,40.39,0,1,1-40.39-40.39,40.39,40.39,0,0,1,40.39,40.39"/></clipPath><clipPath id="clip-path-2"><path class="cls-1" d="M631.8,383.08a42.64,42.64,0,0,1-19.95,78.19,40.35,40.35,0,1,0,19.95-78.19"/></clipPath><clipPath id="clip-path-3"><path class="cls-1" d="M622.42,465.64a43.31,43.31,0,1,1,43.32-43.31,43.36,43.36,0,0,1-43.32,43.31m0-80.77a37.46,37.46,0,1,0,37.47,37.46,37.5,37.5,0,0,0-37.47-37.46"/></clipPath><clipPath id="clip-path-4"><path class="cls-1" d="M616.85,392.69c-2.13,7-8.78,8.42-15.81,6.28s-11.78-7-9.65-14S605,373.39,612,375.52s7,10.14,4.83,17.17"/></clipPath><clipPath id="clip-path-6"><path class="cls-1" d="M603.4,391.22c-5.62-1.7-9.72-5.16-10.08-10.06a13.15,13.15,0,0,0-1.93,3.81c-2.13,7,2.62,11.87,9.65,14s13.68.75,15.81-6.29a13.11,13.11,0,0,0,.51-4.24c-3,3.88-8.35,4.47-14,2.77"/></clipPath><clipPath id="clip-path-7"><path class="cls-1" d="M606.76,402.82a22.88,22.88,0,0,1-6.57-1,19,19,0,0,1-9.74-6.2,12.29,12.29,0,0,1-1.86-11.46c2.69-8.85,16-13.91,24.28-11.4,7.51,2.28,10,10.07,6.78,20.82a12.28,12.28,0,0,1-7.92,8.5,15.32,15.32,0,0,1-5,.78m1.43-24.9c-5.48,0-12.61,3.32-14,7.9a6.52,6.52,0,0,0,.91,6.21,15.89,15.89,0,0,0,14.74,4.47,6.49,6.49,0,0,0,4.21-4.66c1.31-4.32,2.68-11.83-2.87-13.51a10.1,10.1,0,0,0-3-.41"/></clipPath><clipPath id="clip-path-8"><path class="cls-1" d="M628,392.69c2.13,7,8.78,8.42,15.81,6.28s11.78-7,9.65-14-13.61-11.58-20.64-9.45-7,10.14-4.82,17.17"/></clipPath><clipPath id="clip-path-10"><path class="cls-1" d="M641.45,391.22c5.62-1.7,9.71-5.16,10.08-10.06a13.15,13.15,0,0,1,1.93,3.81c2.13,7-2.62,11.87-9.65,14s-13.68.75-15.81-6.29a13.11,13.11,0,0,1-.51-4.24c3,3.88,8.35,4.47,14,2.77"/></clipPath><clipPath id="clip-path-11"><path class="cls-1" d="M638.09,402.82a15.32,15.32,0,0,1-5-.78,12.28,12.28,0,0,1-7.92-8.5c-3.27-10.75-.73-18.54,6.77-20.82,8.33-2.52,21.6,2.55,24.29,11.4a12.29,12.29,0,0,1-1.86,11.46,19,19,0,0,1-9.75,6.2,22.76,22.76,0,0,1-6.56,1m-1.43-24.89a10.11,10.11,0,0,0-3,.4c-5.55,1.68-4.18,9.19-2.87,13.51A6.49,6.49,0,0,0,635,396.5,15.86,15.86,0,0,0,649.74,392a6.5,6.5,0,0,0,.92-6.21c-1.39-4.58-8.52-7.89-14-7.89"/></clipPath><clipPath id="clip-path-12"><path class="cls-1" d="M624.5,389.79a2.92,2.92,0,0,1-2.78-2c-3-9.13-1.22-19.06.84-25.78a2.93,2.93,0,0,1,5.6,1.72c-1.82,5.9-3.44,14.54-.89,22.21a2.91,2.91,0,0,1-1.85,3.7,3,3,0,0,1-.92.15"/></clipPath><clipPath id="clip-path-13"><path class="cls-1" d="M637.64,391.31c0,8.41-6.81,12.13-15.21,12.13s-15.22-3.72-15.22-12.13a15.22,15.22,0,0,1,30.43,0"/></clipPath><clipPath id="clip-path-15"><path class="cls-1" d="M622.42,394.17c-6.71,0-12.34-2.43-14.36-7.66a15,15,0,0,0-.85,4.81c0,8.4,6.81,12.12,15.21,12.12s15.22-3.72,15.22-12.12a15,15,0,0,0-.85-4.81c-2,5.23-7.65,7.66-14.37,7.66"/></clipPath><clipPath id="clip-path-16"><path class="cls-1" d="M622.42,406.37c-11.18,0-18.14-5.77-18.14-15.06a18.15,18.15,0,0,1,36.29,0c0,9.29-7,15.06-18.15,15.06m0-27.34a12.3,12.3,0,0,0-12.28,12.28c0,8.3,8.59,9.2,12.28,9.2s12.29-.9,12.29-9.2A12.3,12.3,0,0,0,622.42,379"/></clipPath><clipPath id="clip-path-17"><path class="cls-1" d="M585.27,470.29a35.64,35.64,0,0,0,35.64-35.63H549.64a35.63,35.63,0,0,0,35.63,35.63"/></clipPath><clipPath id="clip-path-18"><path class="cls-1" d="M612.13,434.66A35.62,35.62,0,0,1,580.88,470a35.43,35.43,0,0,0,40-35.33Z"/></clipPath><clipPath id="clip-path-19"><path class="cls-1" d="M586.42,434.66s13.77-22-1.51-22c-29.08-7.75-29,22-29,22"/></clipPath><clipPath id="clip-path-20"><path class="cls-1" d="M555.87,437.58a2.92,2.92,0,0,1-2.93-2.92c0-.59.09-14.62,9.62-22,5.69-4.38,13.34-5.37,22.74-2.93,5.14.11,7.51,2.44,8.59,4.4,3.94,7.11-3.46,19.6-5,22a2.92,2.92,0,1,1-5-3.1c2.94-4.71,6.51-13.07,4.83-16.1-.51-.92-1.81-1.38-3.86-1.38a3.08,3.08,0,0,1-.75-.1c-7.72-2.06-13.78-1.44-18,1.82-7.26,5.59-7.34,17.19-7.34,17.3a2.92,2.92,0,0,1-2.92,2.93Z"/></clipPath><clipPath id="clip-path-21"><path class="cls-1" d="M583.39,434.66s-13.76-22,1.52-22c29.07-7.75,29,22,29,22"/></clipPath><clipPath id="clip-path-22"><path class="cls-1" d="M583.4,437.58a2.92,2.92,0,0,1-2.49-1.37c-1.52-2.43-8.92-14.92-5-22,1.09-2,3.46-4.29,8.59-4.4,9.4-2.43,17.06-1.45,22.75,2.93,9.52,7.33,9.62,21.36,9.62,22a2.93,2.93,0,0,1-2.93,2.92h0a2.93,2.93,0,0,1-2.93-2.93c0-.11-.12-11.76-7.36-17.31-4.24-3.26-10.3-3.86-18-1.81a3.22,3.22,0,0,1-.75.1c-2.06,0-3.36.46-3.86,1.38-1.69,3,1.88,11.4,4.82,16.09a2.92,2.92,0,0,1-2.47,4.48"/></clipPath><clipPath id="clip-path-23"><path class="cls-1" d="M599.33,434.66s0-24.66-15.27-24.66-15.28,24.66-15.28,24.66"/></clipPath><clipPath id="clip-path-24"><path class="cls-1" d="M599.33,437.58a2.92,2.92,0,0,1-2.92-2.92c0-.22-.18-21.73-12.35-21.73s-12.36,21.51-12.36,21.73a2.92,2.92,0,0,1-2.92,2.92h0a2.93,2.93,0,0,1-2.93-2.92c0-1.13.21-27.59,18.21-27.59s18.2,26.46,18.2,27.59a2.92,2.92,0,0,1-2.92,2.92Z"/></clipPath><clipPath id="clip-path-25"><path class="cls-1" d="M585.27,473.22a38.6,38.6,0,0,1-38.55-38.56,2.93,2.93,0,0,1,2.93-2.93H620.9a2.93,2.93,0,0,1,2.93,2.93A38.6,38.6,0,0,1,585.27,473.22ZM552.7,437.58a32.71,32.71,0,0,0,65.15,0Z"/></clipPath><clipPath id="clip-path-26"><path class="cls-1" d="M569.08,459.87a2.21,2.21,0,0,1-1.22-.37,23.26,23.26,0,0,1-7.92-9.75,2.2,2.2,0,0,1,4.09-1.62,18.93,18.93,0,0,0,6.28,7.72,2.2,2.2,0,0,1-1.23,4"/></clipPath><clipPath id="clip-path-27"><path class="cls-1" d="M560.59,439.8a2.87,2.87,0,1,1-4,.34,2.87,2.87,0,0,1,4-.34"/></clipPath><clipPath id="clip-path-28"><path class="cls-1" d="M372.1,450.38s-1.83,2.81,9.71,4.59,42.12,30,91.11-30c13.69-16.76,8.26-30.38,10.11-40.71s7.1-16.13,1.56-18.58-9.08-1.9-9.83.48,1.61,18.18-8.24,20.75c-13.64,3.57-30.81,38.72-72.67,52.75,0,0-9,3.64-15.53,4.08s-7.14,4.65-6.22,6.59"/></clipPath><clipPath id="clip-path-29"><path class="cls-1" d="M484.59,365.73a16.65,16.65,0,0,0-5.75-1.56c-.42,3.22-2.84,7.87-4,14.23-1.85,10.39,3.6,24.07-10.16,40.92-49.23,60.3-80,31.9-91.57,30.11l-1.32-.23a4.15,4.15,0,0,0,.29,1.19s-1.83,2.8,9.71,4.58,42.12,30,91.11-30c13.69-16.76,8.26-30.38,10.11-40.71s7.1-16.13,1.56-18.58"/></clipPath><clipPath id="clip-path-30"><path class="cls-1" d="M412.52,466.14c-10.6,0-18.93-3.46-24.76-5.88a33.87,33.87,0,0,0-6.41-2.27c-7.14-1.11-10.85-2.78-12-5.43a4.12,4.12,0,0,1-.37-1.94,7.24,7.24,0,0,1,.76-5.51c1-1.8,3.36-4,8.39-4.36,5.94-.4,14.52-3.83,14.61-3.87,25.61-8.59,41.82-25.28,53.65-37.47,7.51-7.74,13.44-13.85,19.38-15.4,5.11-1.33,5.65-8.34,5.76-14.8a14.82,14.82,0,0,1,.34-3.92,5.73,5.73,0,0,1,3.17-3.53c2.62-1.19,6.36-.78,10.8,1.18,6.22,2.74,4.21,8.63,2.59,13.36a57.14,57.14,0,0,0-2.39,8.55,48.36,48.36,0,0,0-.37,8.64c.12,9.1.27,20.43-10.38,33.46-25.54,31.29-46.74,39.19-62.75,39.19m-37.41-16.08c.73.4,2.63,1.2,7.17,1.9a36.64,36.64,0,0,1,7.82,2.66c14.28,5.93,40.85,17,80.46-31.53,9.24-11.31,9.11-21,9-29.52a51.36,51.36,0,0,1,.47-9.79,61.44,61.44,0,0,1,2.62-9.46c.65-1.91,1.64-4.8,1.32-5.42a1.54,1.54,0,0,0-.61-.38c-3.34-1.47-5.13-1.4-5.69-1.25,0,.47-.06,1.33-.07,2.05-.1,5.83-.31,18-10.31,20.59-4.3,1.13-9.71,6.69-16.55,13.74-12.27,12.64-29.07,30-55.92,39-.22.09-9.38,3.76-16.3,4.22-1.8.12-3.1.62-3.54,1.35a1.08,1.08,0,0,0-.12.9,3.21,3.21,0,0,1,.25,1"/></clipPath><clipPath id="clip-path-31"><path class="cls-1" d="M400.68,447.8a2.29,2.29,0,0,1-.49-4.52c.17,0,17.87-4.13,31.33-17.44a2.29,2.29,0,0,1,3.21,3.26c-14.43,14.26-32.78,18.48-33.55,18.65a2.83,2.83,0,0,1-.5.05"/></clipPath><clipPath id="clip-path-32"><path class="cls-1" d="M440.8,419.76a2.77,2.77,0,1,1-3.9.32,2.77,2.77,0,0,1,3.9-.32"/></clipPath><clipPath id="clip-path-33"><path class="cls-1" d="M-52,339.82a51.56,51.56,0,0,1-51.57,51.56,51.55,51.55,0,0,1-51.56-51.56c0-28.48,23.08-43.5,51.56-43.5s51.57,15,51.57,43.5"/></clipPath><clipPath id="clip-path-34"><path class="cls-1" d="M-86.77,298.27c15.11,6.59,25.27,19.51,25.27,38.38a51.56,51.56,0,0,1-51.56,51.56,51.24,51.24,0,0,1-11.49-1.33,51.33,51.33,0,0,0,21,4.5A51.56,51.56,0,0,0-52,339.82c0-22.6-14.56-36.68-34.79-41.55"/></clipPath><clipPath id="clip-path-35"><path class="cls-1" d="M-103.54,394.56a54.8,54.8,0,0,1-54.74-54.74c0-27.91,22-46.67,54.74-46.67s54.73,18.76,54.73,46.67a54.8,54.8,0,0,1-54.73,54.74m0-95.06c-22.33,0-48.4,10.56-48.4,40.32a48.45,48.45,0,0,0,48.4,48.39,48.45,48.45,0,0,0,48.39-48.39c0-29.76-26.07-40.32-48.39-40.32"/></clipPath><clipPath id="clip-path-36"><path class="cls-1" d="M-103.54,330.63c-12.48,0-17.76-6.48-18-6.76a3.17,3.17,0,0,1,.52-4.46,3.17,3.17,0,0,1,4.45.52c.12.15,3.78,4.36,13,4.36s12.87-4.21,13-4.39a3.18,3.18,0,0,1,4.44-.44,3.14,3.14,0,0,1,.5,4.41c-.22.28-5.49,6.76-18,6.76"/></clipPath><clipPath id="clip-path-37"><path class="cls-1" d="M-103.55,330.63a3.16,3.16,0,0,1-3-2.24c-.31-1-7.35-24.68,11.57-42.59a3.17,3.17,0,0,1,4.48.13,3.17,3.17,0,0,1-.12,4.48c-16,15.14-10.13,35.27-9.87,36.12a3.19,3.19,0,0,1-2.11,4,3.33,3.33,0,0,1-.93.14"/></clipPath><clipPath id="clip-path-38"><path class="cls-1" d="M-139.92,292.92c35-11,33.31,17.32,33.31,17.32s-22.27,17.63-33.31-17.32"/></clipPath><clipPath id="clip-path-39"><path class="cls-1" d="M-139.92,292.92l33.31,17.32s-22.27,17.63-33.31-17.32"/></clipPath><clipPath id="clip-path-40"><path class="cls-1" d="M-119.22,317.86a18.81,18.81,0,0,1-5.48-.81c-8-2.46-14.17-10.26-18.24-23.18a3.11,3.11,0,0,1,.21-2.41,3.22,3.22,0,0,1,1.85-1.57c12.92-4.07,22.83-3.52,29.45,1.63,8.59,6.69,8,18.41,8,18.91a3.14,3.14,0,0,1-1.2,2.3c-.32.25-6.59,5.13-14.57,5.13M-135.85,295c3.31,8.95,7.68,14.31,13,15.94s10.72-1,13-2.39c-.16-2.73-1.06-8.62-5.55-12.09s-11.28-3.89-20.49-1.46"/></clipPath><clipPath id="clip-path-41"><path class="cls-1" d="M-115,343.2a24.92,24.92,0,0,1-19.46-9.33,2.37,2.37,0,0,1,.53-3.32,2.37,2.37,0,0,1,3.31.52,20.37,20.37,0,0,0,16.57,7.36,2.3,2.3,0,0,1,2.48,2.27,2.38,2.38,0,0,1-2.27,2.48c-.39,0-.78,0-1.16,0"/></clipPath><clipPath id="clip-path-42"><path class="cls-1" d="M-134.8,322.3a3.11,3.11,0,0,1,.36,4.39,3.11,3.11,0,0,1-4.38.36,3.11,3.11,0,0,1-.36-4.38,3.11,3.11,0,0,1,4.38-.37"/></clipPath><clipPath id="clip-path-43"><path class="cls-1" d="M-267.77,388A23.27,23.27,0,0,1-291,411.29,23.27,23.27,0,0,1-314.31,388c0-12.85,10.42-19.63,23.27-19.63s23.27,6.78,23.27,19.63"/></clipPath><clipPath id="clip-path-44"><path class="cls-1" d="M-278.08,371.19a18,18,0,0,1,4.89,12.87,23.26,23.26,0,0,1-23.26,23.26,23.13,23.13,0,0,1-10.88-2.7A23.18,23.18,0,0,0-291,411.29,23.27,23.27,0,0,0-267.77,388a17.94,17.94,0,0,0-10.31-16.83"/></clipPath><clipPath id="clip-path-45"><path class="cls-1" d="M-291,414.26A26.27,26.27,0,0,1-317.28,388c0-13.52,10.54-22.6,26.24-22.6s26.24,9.08,26.24,22.6A26.27,26.27,0,0,1-291,414.26m0-42.89c-9.36,0-20.3,4.36-20.3,16.65a20.33,20.33,0,0,0,20.3,20.3A20.32,20.32,0,0,0-270.75,388c0-12.29-10.93-16.65-20.29-16.65"/></clipPath><clipPath id="clip-path-46"><path class="cls-1" d="M-291,385.42c-6.26,0-9-3.27-9.32-3.64a3,3,0,0,1,.49-4.18,3,3,0,0,1,4.18.49s1.33,1.38,4.65,1.38,4.66-1.4,4.72-1.46a3,3,0,0,1,4.15-.3,2.93,2.93,0,0,1,.45,4.07c-.3.37-3.06,3.64-9.32,3.64"/></clipPath><clipPath id="clip-path-47"><path class="cls-1" d="M-296.22,390.71a12.53,12.53,0,0,1-9.72-4.69,2.24,2.24,0,0,1,.5-3.12,2.24,2.24,0,0,1,3.1.48,7.91,7.91,0,0,0,6.5,2.86,2.17,2.17,0,0,1,2.32,2.13,2.22,2.22,0,0,1-2.13,2.32l-.57,0"/></clipPath><clipPath id="clip-path-48"><path class="cls-1" d="M-212.6,388a23.27,23.27,0,0,1-23.27,23.27A23.26,23.26,0,0,1-259.13,388c0-12.85,10.41-19.63,23.26-19.63s23.27,6.78,23.27,19.63"/></clipPath><clipPath id="clip-path-49"><path class="cls-1" d="M-222.91,371.19a18,18,0,0,1,4.9,12.87,23.26,23.26,0,0,1-23.27,23.26,23.19,23.19,0,0,1-10.88-2.7,23.2,23.2,0,0,0,16.3,6.67A23.26,23.26,0,0,0-212.6,388a17.93,17.93,0,0,0-10.31-16.83"/></clipPath><clipPath id="clip-path-50"><path class="cls-1" d="M-235.87,414.26A26.27,26.27,0,0,1-262.11,388c0-13.52,10.55-22.6,26.24-22.6s26.25,9.08,26.25,22.6a26.27,26.27,0,0,1-26.25,26.24m0-42.89c-9.36,0-20.29,4.36-20.29,16.65a20.32,20.32,0,0,0,20.29,20.3,20.32,20.32,0,0,0,20.3-20.3c0-12.29-10.93-16.65-20.3-16.65"/></clipPath><clipPath id="clip-path-51"><path class="cls-1" d="M-235.87,385.42c-6.25,0-9-3.27-9.31-3.64a3,3,0,0,1,.48-4.18,3,3,0,0,1,4.18.49s1.33,1.38,4.65,1.38,4.67-1.4,4.72-1.46a3,3,0,0,1,4.16-.3,2.93,2.93,0,0,1,.44,4.07c-.29.37-3.06,3.64-9.32,3.64"/></clipPath><clipPath id="clip-path-52"><path class="cls-1" d="M-241,390.71a12.51,12.51,0,0,1-9.72-4.69,2.25,2.25,0,0,1,.49-3.12,2.25,2.25,0,0,1,3.11.48,8,8,0,0,0,6.5,2.86,2.15,2.15,0,0,1,2.32,2.13,2.23,2.23,0,0,1-2.13,2.32l-.57,0"/></clipPath><clipPath id="clip-path-53"><path class="cls-1" d="M-291,384.16h0a3,3,0,0,1-3-3c0-8.43,4.48-13.76,8.79-18.9,6.32-7.54,12.86-15.35,8.89-35.08a3,3,0,0,1,2.33-3.5,3,3,0,0,1,3.5,2.33c4.54,22.54-3.61,32.26-10.16,40.07-4.13,4.92-7.4,8.82-7.41,15.09a3,3,0,0,1-3,3"/></clipPath><clipPath id="clip-path-54"><path class="cls-1" d="M-235.87,385.42a3,3,0,0,1-2.89-2.3c-.14-.62-15-61.89-46.48-56.89a3,3,0,0,1-3.4-2.47,3,3,0,0,1,2.47-3.4c36.88-5.83,52.55,58.65,53.2,61.4a3,3,0,0,1-2.21,3.57,2.72,2.72,0,0,1-.69.09"/></clipPath><clipPath id="clip-path-55"><path class="cls-1" d="M-233,314c-32.79-20.12-38.31,9.18-38.31,9.18S-253.12,346.76-233,314"/></clipPath><clipPath id="clip-path-56"><path class="cls-1" d="M-233,314l-38.31,9.18S-253.12,346.76-233,314"/></clipPath><clipPath id="clip-path-57"><path class="cls-1" d="M-255.65,334.35c-10.66,0-17.72-9-18-9.39a3,3,0,0,1-.57-2.37c.1-.5,2.45-12.41,12.72-16.95,7.95-3.53,18.06-1.57,30.07,5.8a3,3,0,0,1,1,4.09c-7.37,12-15.5,18.33-24.18,18.79-.33,0-.67,0-1,0m-12.39-12c2,2,7,6.42,13.12,6,6-.34,12-4.84,17.74-13.41-9-5-16.37-6.33-21.89-3.91-5.7,2.5-8.14,8.59-9,11.3"/></clipPath><clipPath id="clip-path-58"><path class="cls-1" d="M722,227.06l0,0s-8.72-12.47-9.19-24.54-9.39-19.22-19.61-19.22-19.14,7.15-19.62,19.22S664.44,227,664.44,227l0,0C658,235,654,245,654,254.72c0,20.48,17.58,37.08,39.27,37.08s39.26-16.6,39.26-37.08c0-9.73-4-19.77-10.49-27.66"/></clipPath><clipPath id="clip-path-59"><path class="cls-1" d="M724.8,230.87a43.92,43.92,0,0,1,1.31,10.26c0,23.26-20,42.11-44.6,42.11a46.84,46.84,0,0,1-16.84-3.13,40.24,40.24,0,0,0,28.57,11.69c21.68,0,39.27-16.6,39.27-37.08a43.57,43.57,0,0,0-7.71-23.85"/></clipPath><clipPath id="clip-path-60"><path class="cls-1" d="M693.24,295.06c-23.45,0-42.52-18.09-42.52-40.34,0-10.08,4-20.75,10.93-29.35a1.32,1.32,0,0,1,.12-.2c.08-.12,8.18-11.86,8.6-22.8.51-13,10.13-22.36,22.87-22.36s22.35,9.4,22.86,22.36c.43,11,8.52,22.68,8.6,22.8s.09.12.13.19c6.95,8.61,10.93,19.28,10.93,29.36,0,22.25-19.08,40.34-42.52,40.34m-25.85-66.57a3.39,3.39,0,0,1-.41.65c-6.2,7.52-9.76,16.84-9.76,25.58,0,18.64,16.16,33.81,36,33.81s36-15.17,36-33.81c0-8.73-3.55-18.05-9.75-25.58a3,3,0,0,1-.42-.65c-1.6-2.4-9-14.12-9.48-25.86-.43-11-8.79-16.09-16.36-16.09s-15.93,5-16.36,16.09c-.47,11.74-7.89,23.46-9.49,25.86"/></clipPath><clipPath id="clip-path-61"><path class="cls-1" d="M671.85,235.94a2.39,2.39,0,0,1-1.18-.31,2.46,2.46,0,0,1-1-3.33,48.65,48.65,0,0,1,3.64-5.66,1,1,0,0,1,.11-.2,59.84,59.84,0,0,0,7-17.24,2.44,2.44,0,1,1,4.78,1,63.62,63.62,0,0,1-7.46,18.51,2.43,2.43,0,0,1-.31.54,45.52,45.52,0,0,0-3.5,5.42,2.45,2.45,0,0,1-2.14,1.27"/></clipPath><clipPath id="clip-path-62"><path class="cls-1" d="M687,198.75a3.2,3.2,0,1,1-4.51,0,3.2,3.2,0,0,1,4.51,0"/></clipPath><clipPath id="clip-path-63"><path class="cls-1" d="M693.24,184.39a3.27,3.27,0,0,1-3.19-2.61c-.17-.82-4-20.24,4.82-34.26a3.24,3.24,0,0,1,4.49-1,3.28,3.28,0,0,1,1,4.51c-7.45,11.81-4,29.27-4,29.44a3.25,3.25,0,0,1-2.52,3.86,3.09,3.09,0,0,1-.66.07"/></clipPath><clipPath id="clip-path-64"><path class="cls-1" d="M736.9,164.73C701,142.62,695,174.81,695,174.81s19.91,25.95,41.92-10.08"/></clipPath><clipPath id="clip-path-65"><path class="cls-1" d="M736.9,164.73,695,174.81s19.91,25.95,41.92-10.08"/></clipPath><clipPath id="clip-path-66"><path class="cls-1" d="M712.12,187.12c-11.67,0-19.39-9.88-19.72-10.31a3.32,3.32,0,0,1-.62-2.6c.11-.56,2.68-13.64,13.92-18.64,8.69-3.87,19.76-1.72,32.9,6.37a3.29,3.29,0,0,1,1.08,4.5c-8.07,13.2-17,20.14-26.46,20.65l-1.1,0m-13.56-13.18c2.14,2.24,7.46,7,14.36,6.62,6.58-.37,13.11-5.32,19.41-14.73-9.89-5.53-17.94-7-24-4.29-6.27,2.79-8.9,9.44-9.78,12.4"/></clipPath><clipPath id="clip-path-67"><path class="cls-1" d="M116.59,68.6c0-26.67-21.62-40.73-48.28-40.73S20,41.93,20,68.6a48.14,48.14,0,0,0,2.5,15.26h0s15.47,48.87,45.79,33c30.33,15.84,45.8-33,45.8-33h0a48.14,48.14,0,0,0,2.5-15.26"/></clipPath><clipPath id="clip-path-68"><rect class="cls-2" x="-719.28" y="-464.06" width="1400" height="960"/></clipPath><clipPath id="clip-path-69"><path class="cls-1" d="M116.59,68.6c0-16.78-8.57-28.56-21.55-35,7.83,6.81,12.64,16.52,12.64,29.05a48.23,48.23,0,0,1-2.5,15.26h0S93.14,116,69.46,114A30.08,30.08,0,0,1,66,117.94c.76-.32,1.51-.65,2.28-1,30.33,15.84,45.8-33,45.8-33h0a48.14,48.14,0,0,0,2.5-15.26"/></clipPath><clipPath id="clip-path-71"><path class="cls-1" d="M68.31,57.38c-11.84,0-16.89-6.2-17.1-6.47a3.33,3.33,0,0,1,5.22-4.13c.1.12,3.45,3.95,11.88,3.95s11.78-3.83,11.92-4a3.35,3.35,0,0,1,4.66-.44,3.31,3.31,0,0,1,.52,4.61c-.21.27-5.25,6.47-17.1,6.47"/></clipPath><clipPath id="clip-path-73"><path class="cls-1" d="M80.13,123.38a27.92,27.92,0,0,1-11.82-2.79c-7.3,3.4-14.43,3.7-21.23.89C28.72,113.9,19.72,86,19.35,84.86a2.14,2.14,0,0,1-.09-.34A51.41,51.41,0,0,1,16.72,68.6c0-26.35,20.73-44.06,51.59-44.06s51.6,17.71,51.6,44.06a51.7,51.7,0,0,1-2.54,15.92,2.14,2.14,0,0,1-.09.34c-.37,1.18-9.38,29-27.73,36.62a24.5,24.5,0,0,1-9.42,1.9m-11.82-9.82a3.34,3.34,0,0,1,1.54.38c6.1,3.19,11.71,3.64,17.16,1.39,14.56-6,22.78-29.08,23.82-32.14,0-.13.06-.26.1-.38a44.82,44.82,0,0,0,2.33-14.21c0-27.61-24.21-37.41-44.95-37.41S23.37,41,23.37,68.6a45.09,45.09,0,0,0,2.32,14.21,2.36,2.36,0,0,1,.1.38c1.05,3.07,9.31,26.16,23.83,32.14,5.45,2.24,11.06,1.79,17.15-1.39a3.37,3.37,0,0,1,1.54-.38"/></clipPath><clipPath id="clip-path-75"><path class="cls-1" d="M68.31,57.37A3.31,3.31,0,0,1,65.14,55c-.29-.94-6.94-23.33,10.93-40.24a3.32,3.32,0,1,1,4.56,4.83c-14.81,14-9.38,32.67-9.14,33.46a3.33,3.33,0,0,1-2.2,4.15,3.74,3.74,0,0,1-1,.14"/></clipPath><clipPath id="clip-path-77"><path class="cls-1" d="M32.4,21.64C69,10.07,67.3,39.8,67.3,39.8S44,58.28,32.4,21.64"/></clipPath><clipPath id="clip-path-79"><path class="cls-1" d="M32.4,21.64,67.3,39.8S44,58.28,32.4,21.64"/></clipPath><clipPath id="clip-path-81"><path class="cls-1" d="M54.09,47.78a19.3,19.3,0,0,1-5.74-.85C39.94,44.35,33.5,36.18,29.23,22.64a3.36,3.36,0,0,1,.22-2.53,3.3,3.3,0,0,1,1.95-1.64c13.54-4.27,23.92-3.7,30.86,1.7,9,7,8.39,19.3,8.36,19.82a3.31,3.31,0,0,1-1.26,2.41c-.33.26-6.91,5.38-15.27,5.38M36.67,23.86c3.46,9.36,8,15,13.58,16.7s11.25-1,13.7-2.51c-.18-2.86-1.11-9-5.81-12.66s-11.82-4.07-21.47-1.53"/></clipPath><clipPath id="clip-path-83"><path class="cls-1" d="M57.57,69.07a23.59,23.59,0,0,1-18.43-8.86,2.49,2.49,0,1,1,4-2.93,18.57,18.57,0,0,0,15.28,6.78,2.42,2.42,0,0,1,2.6,2.38A2.49,2.49,0,0,1,58.67,69l-1.1,0"/></clipPath><clipPath id="clip-path-85"><path class="cls-1" d="M38.15,49a3.26,3.26,0,1,1-4.59.38A3.25,3.25,0,0,1,38.15,49"/></clipPath><clipPath id="clip-path-87"><path class="cls-1" d="M-39.2-23.83c12.52-12.43,17.94-28.94,15.9-43.82h0s-1.77-13.49.57-19.68c3.28-5.46,1.54-10.35-2.05-13.91s-8.51-5.29-14-2c-6.23,2.32-19.83.57-19.83.57h0c-15-2-31.62,3.36-44.14,15.79S-120.69-58-118.66-43.09h0s1.76,13.49-.57,19.67c-3.29,5.46-1.54,10.36,2,13.91s8.51,5.29,14,2C-96.94-9.8-83.35-8-83.35-8h0c15,2,31.63-3.36,44.15-15.78"/></clipPath><clipPath id="clip-path-88"><path class="cls-1" d="M-23.29-67.65a87.09,87.09,0,0,1-.63-11.1c-.67-.71-1.2-2.27-1.55-4.88h0c2.41,17.56-4,37.05-18.77,51.72C-58.17-18.09-80.09-11-97.38-12.27c-1,1-2.64,2.55-4.69,4.45C-95.47-9.6-83.35-8-83.35-8h0c15,2,31.63-3.36,44.15-15.79s17.94-28.93,15.9-43.81Z"/></clipPath><clipPath id="clip-path-89"><path class="cls-1" d="M-109-2.47a14.8,14.8,0,0,1-10.48-4.72c-5.21-5.18-6.19-11.58-2.71-17.62,1.56-4.56.75-14.4.3-17.86a1.64,1.64,0,0,1,0-.22c-2.16-16.39,4.13-33.7,16.87-46.33s30.15-18.9,46.66-16.75l.24,0c3.49.45,13.41,1.25,18-.29,6.08-3.46,12.53-2.49,17.74,2.68s6.2,11.58,2.71,17.62c-1.56,4.56-.75,14.4-.29,17.87a1.49,1.49,0,0,0,0,.21c2.16,16.4-4.14,33.7-16.87,46.34S-67.19-2.58-83.77-4.8h0c-6.32-.76-14.25-.94-18,.31a14.7,14.7,0,0,1-7.27,2m-6.33-40.82c.29,2.28,1.67,14.54-.78,21a2.89,2.89,0,0,1-.26.53c-2.09,3.48-1.57,6.82,1.55,9.92s6.48,3.61,10,1.54a2.61,2.61,0,0,1,.53-.26c6.81-2.53,19.93-.93,21.41-.75,14.58,2,30-3.59,41.39-14.86s16.94-26.61,15-41.06a1.15,1.15,0,0,1,0-.26c-.29-2.28-1.67-14.53.78-21a3.16,3.16,0,0,1,.26-.52c2.09-3.49,1.57-6.83-1.55-9.93s-6.48-3.61-10-1.53a5.2,5.2,0,0,1-.53.26c-6.51,2.42-18.8,1.07-21.15.77l-.28,0c-14.55-2-30,3.59-41.37,14.85s-17,26.61-15,41.07a1.94,1.94,0,0,1,0,.24"/></clipPath><clipPath id="clip-path-90"><path class="cls-1" d="M-74.13-30.11a3.55,3.55,0,0,1-5,.41,3.49,3.49,0,0,1-.41-4.95,3.55,3.55,0,0,1,5-.41,3.5,3.5,0,0,1,.41,5"/></clipPath><clipPath id="clip-path-91"><path class="cls-1" d="M-65-36.12a3.55,3.55,0,0,1-5,.41,3.49,3.49,0,0,1-.41-4.94,3.55,3.55,0,0,1,5-.41A3.48,3.48,0,0,1-65-36.12"/></clipPath><clipPath id="clip-path-92"><path class="cls-1" d="M-67.65-23.82a3.54,3.54,0,0,1-4.93.8,3.49,3.49,0,0,1-.81-4.9,3.55,3.55,0,0,1,4.94-.79,3.49,3.49,0,0,1,.8,4.89"/></clipPath><clipPath id="clip-path-93"><path class="cls-1" d="M-58-28.17a4.45,4.45,0,0,1-6.24-.44,4.37,4.37,0,0,1,.43-6.2,4.45,4.45,0,0,1,6.25.44,4.36,4.36,0,0,1-.44,6.2"/></clipPath><clipPath id="clip-path-94"><path class="cls-1" d="M-47.76-33.7a3.42,3.42,0,0,1-4.8.39,3.36,3.36,0,0,1-.39-4.76,3.42,3.42,0,0,1,4.79-.4,3.36,3.36,0,0,1,.4,4.77"/></clipPath><clipPath id="clip-path-95"><path class="cls-1" d="M-41.14-40.66a3.3,3.3,0,0,1-4.64.38,3.26,3.26,0,0,1-.39-4.62,3.33,3.33,0,0,1,4.65-.38,3.26,3.26,0,0,1,.38,4.62"/></clipPath><clipPath id="clip-path-96"><path class="cls-1" d="M-87.1-17a3.32,3.32,0,0,1-4.65.38,3.25,3.25,0,0,1-.38-4.61,3.3,3.3,0,0,1,4.64-.38A3.25,3.25,0,0,1-87.1-17"/></clipPath><clipPath id="clip-path-97"><path class="cls-1" d="M-77.85-20.24a3.3,3.3,0,0,1-4.64.38,3.26,3.26,0,0,1-.39-4.61,3.32,3.32,0,0,1,4.65-.38,3.25,3.25,0,0,1,.38,4.61"/></clipPath><clipPath id="clip-path-98"><path class="cls-1" d="M-54.66-40.49a3.73,3.73,0,0,1-5.23.43,3.67,3.67,0,0,1-.43-5.18,3.73,3.73,0,0,1,5.22-.43,3.65,3.65,0,0,1,.44,5.18"/></clipPath><clipPath id="clip-path-99"><path class="cls-1" d="M-107.58-61.8a2.42,2.42,0,0,1-1-.23,2.46,2.46,0,0,1-1.2-3.26A58.72,58.72,0,0,1-97.91-82.1a59.59,59.59,0,0,1,13.38-10,2.49,2.49,0,0,1,3.36,1,2.44,2.44,0,0,1-1,3.33,54.54,54.54,0,0,0-12.28,9.2,53.8,53.8,0,0,0-10.91,15.41,2.49,2.49,0,0,1-2.25,1.42"/></clipPath><clipPath id="clip-path-100"><path class="cls-1" d="M-73.61-95.63a3.18,3.18,0,0,1,.38,4.52,3.24,3.24,0,0,1-4.55.37,3.18,3.18,0,0,1-.38-4.52,3.24,3.24,0,0,1,4.55-.37"/></clipPath><clipPath id="clip-path-101"><path class="cls-1" d="M-247.19,168.59A51.43,51.43,0,0,1-298.62,220a51.43,51.43,0,0,1-51.44-51.42,51.43,51.43,0,0,1,51.44-51.43,51.43,51.43,0,0,1,51.43,51.43"/></clipPath><clipPath id="clip-path-102"><path class="cls-1" d="M-265.63,129.15a51.2,51.2,0,0,1,12,33,51.43,51.43,0,0,1-51.43,51.43,51.2,51.2,0,0,1-33-12A51.28,51.28,0,0,0-298.63,220a51.43,51.43,0,0,0,51.44-51.42,51.33,51.33,0,0,0-18.44-39.44"/></clipPath><clipPath id="clip-path-103"><path class="cls-1" d="M-298.63,223.23a54.7,54.7,0,0,1-54.65-54.64,54.7,54.7,0,0,1,54.65-54.65A54.71,54.71,0,0,1-244,168.59a54.71,54.71,0,0,1-54.66,54.64m0-102.85a48.27,48.27,0,0,0-48.21,48.21,48.27,48.27,0,0,0,48.21,48.2,48.27,48.27,0,0,0,48.22-48.2,48.27,48.27,0,0,0-48.22-48.21"/></clipPath><clipPath id="clip-path-104"><path class="cls-1" d="M-257.75,168.59a40.87,40.87,0,0,1-40.88,40.86,40.86,40.86,0,0,1-40.87-40.86,40.87,40.87,0,0,1,40.87-40.87,40.87,40.87,0,0,1,40.88,40.87"/></clipPath><clipPath id="clip-path-105"><path class="cls-1" d="M-290.75,128.49a40.84,40.84,0,0,1,23.33,36.87,40.87,40.87,0,0,1-40.87,40.87,41.69,41.69,0,0,1-7.88-.77,40.77,40.77,0,0,0,17.54,4,40.87,40.87,0,0,0,40.88-40.87,40.87,40.87,0,0,0-33-40.09"/></clipPath><clipPath id="clip-path-106"><path class="cls-1" d="M-298.63,212.67a44.13,44.13,0,0,1-44.09-44.08,44.14,44.14,0,0,1,44.09-44.09,44.14,44.14,0,0,1,44.1,44.09,44.14,44.14,0,0,1-44.1,44.08m0-81.73a37.69,37.69,0,0,0-37.65,37.65,37.69,37.69,0,0,0,37.65,37.64A37.7,37.7,0,0,0-261,168.59a37.7,37.7,0,0,0-37.66-37.65"/></clipPath><clipPath id="clip-path-107"><path class="cls-1" d="M-295.46,190.46a3.17,3.17,0,0,1-3.17,3.17,3.18,3.18,0,0,1-3.17-3.17c0-1.75,1.43-6.79,3.17-6.79s3.17,5,3.17,6.79"/></clipPath><clipPath id="clip-path-108"><path class="cls-1" d="M-301.79,146.71a3.15,3.15,0,0,1,3.16-3.16,3.16,3.16,0,0,1,3.17,3.16c0,1.75-1.42,6.79-3.17,6.79s-3.16-5-3.16-6.79"/></clipPath><clipPath id="clip-path-109"><path class="cls-1" d="M-320.5,171.75a3.16,3.16,0,0,1-3.17-3.16,3.17,3.17,0,0,1,3.17-3.17c1.75,0,6.79,1.42,6.79,3.17s-5,3.16-6.79,3.16"/></clipPath><clipPath id="clip-path-110"><path class="cls-1" d="M-276.75,165.42a3.17,3.17,0,0,1,3.17,3.16,3.18,3.18,0,0,1-3.17,3.18c-1.75,0-6.79-1.43-6.79-3.18s5-3.16,6.79-3.16"/></clipPath><clipPath id="clip-path-111"><path class="cls-1" d="M-316.34,155.36a3.18,3.18,0,0,1,0-4.48,3.17,3.17,0,0,1,4.49,0c1.23,1.23,3.79,5.8,2.55,7s-5.8-1.32-7-2.56"/></clipPath><clipPath id="clip-path-112"><path class="cls-1" d="M-280.92,181.81a3.16,3.16,0,0,1,0,4.48,3.16,3.16,0,0,1-4.48,0c-1.24-1.23-3.79-5.8-2.56-7s5.81,1.33,7,2.56"/></clipPath><clipPath id="clip-path-113"><path class="cls-1" d="M-285.4,150.88a3.17,3.17,0,0,1,4.49,0,3.18,3.18,0,0,1,0,4.48c-1.24,1.24-5.81,3.8-7,2.56s1.33-5.8,2.56-7"/></clipPath><clipPath id="clip-path-114"><path class="cls-1" d="M-311.85,186.29a3.17,3.17,0,0,1-4.49,0,3.18,3.18,0,0,1,0-4.48c1.24-1.24,5.81-3.79,7-2.56s-1.33,5.81-2.56,7"/></clipPath><clipPath id="clip-path-115"><path class="cls-1" d="M-330.66,166.52l-.33,0a2.42,2.42,0,0,1-2.06-2.73,35.07,35.07,0,0,1,9.43-19.57,2.43,2.43,0,0,1,3.42-.08,2.43,2.43,0,0,1,.08,3.42,30.29,30.29,0,0,0-8.15,16.89,2.41,2.41,0,0,1-2.39,2.09"/></clipPath><clipPath id="clip-path-116"><path class="cls-1" d="M-314.23,139.24a3.15,3.15,0,0,1,.36,4.45,3.15,3.15,0,0,1-4.45.37,3.16,3.16,0,0,1-.37-4.45,3.17,3.17,0,0,1,4.46-.37"/></clipPath><clipPath id="clip-path-117"><path class="cls-1" d="M-180.41,47.68c-15.5,15.5-58.24,33.12-73.74,17.62S-252,7.07-236.53-8.43s35.59-10.46,51.08,5,20.53,35.59,5,51.08"/></clipPath><clipPath id="clip-path-118"><path class="cls-1" d="M-177.89,5.76c3.74,10.93,2,22.27-7.56,31.86-15.49,15.49-58.23,33.11-73.73,17.61-.08-.07-.14-.16-.22-.24a20.3,20.3,0,0,0,5.25,10.31c15.5,15.5,58.24-2.12,73.74-17.62,12.58-12.58,11.62-28.2,2.52-41.92"/></clipPath><clipPath id="clip-path-119"><path class="cls-1" d="M-236.52,74.33c-8,0-15-2-19.84-6.81-7.77-7.77-9-22-3.6-40C-255.55,13-247-2.35-238.74-10.64c15.33-15.34,37.12-13.36,55.51,5s20.36,40.18,5,55.51c-11.48,11.48-38,24.43-58.32,24.43m21.25-89c-6.49,0-13,2.44-19,8.45C-241.94,1.41-249.83,15.7-254,29.34c-4.68,15.48-3.94,27.78,2,33.75,13.88,13.88,55-3.31,69.3-17.62,15.34-15.34,7.46-34.16-5-46.65-7.6-7.6-17.54-13.49-27.61-13.49"/></clipPath><clipPath id="clip-path-120"><path class="cls-1" d="M-221.27,27.41a3.56,3.56,0,0,1,5,0,3.56,3.56,0,0,1,0,5c-1.39,1.38-6.5,4.25-7.89,2.86s1.49-6.5,2.87-7.88"/></clipPath><clipPath id="clip-path-121"><path class="cls-1" d="M-225.48,3.61a3.56,3.56,0,0,1,5,0,3.56,3.56,0,0,1,0,5c-1.39,1.38-6.5,4.25-7.88,2.86s1.48-6.5,2.86-7.88"/></clipPath><clipPath id="clip-path-122"><path class="cls-1" d="M-239.39,27a3.54,3.54,0,0,1,5,0,3.56,3.56,0,0,1,0,5c-1.39,1.38-6.5,4.25-7.89,2.86s1.48-6.5,2.87-7.88"/></clipPath><clipPath id="clip-path-123"><path class="cls-1" d="M-195.29,38.83a3.56,3.56,0,0,0,0-5,3.56,3.56,0,0,0-5,0c-1.38,1.39-4.25,6.5-2.87,7.88s6.5-1.48,7.89-2.86"/></clipPath><clipPath id="clip-path-124"><path class="cls-1" d="M-218.71,52.74a3.56,3.56,0,0,0,0-5,3.56,3.56,0,0,0-5,0c-1.38,1.39-4.25,6.5-2.86,7.89s6.49-1.48,7.88-2.87"/></clipPath><clipPath id="clip-path-125"><path class="cls-1" d="M-185.09,14.32s-12.9,5.78-22.2,4.12A21.55,21.55,0,0,1-198.41,1s-14.36-5.86-19-24.12c0,0,9.77-1.27,20.17,8.28,0,0,7.43-9.55,4.46-17.62,0,0,15.63,7.14,12.27,24.16,0,0,14.54.83,23.22,9.57,0,0-2.87,4.56-11.65,7.1,0,0,6.46,9.55,7.45,18.76,0,0-10.24.53-23.57-12.8"/></clipPath><clipPath id="clip-path-127"><path class="cls-1" d="M-163.52,19.16A57.55,57.55,0,0,0-169,8.36c8.78-2.54,11.65-7.1,11.65-7.1-8.68-8.73-23.22-9.57-23.22-9.57,3.36-17-12.27-24.16-12.27-24.16,3,8.06-4.46,17.62-4.46,17.62-8-7.32-15.53-8.28-18.64-8.33a17.9,17.9,0,0,1-.61,3.13c5.39,15.84,18.11,21,18.11,21A20.74,20.74,0,0,0-206,11c9.69,1.6,22.93-4.33,22.93-4.33,8.09,8.09,15.07,11.27,19.51,12.53"/></clipPath><clipPath id="clip-path-128"><path class="cls-1" d="M-161.64,30.25c-1.82,0-11.75-.57-24.16-12.25-4.18,1.62-14.09,4.94-22,3.53a3.15,3.15,0,0,1-2.58-2.93,24.86,24.86,0,0,1,6.6-17,40,40,0,0,1-16.65-23.91,3.1,3.1,0,0,1,.44-2.54,3.1,3.1,0,0,1,2.18-1.34c.41-.07,8.87-1.06,18.61,5.78,1-4.12,2.34-9.81,3.47-13.06A3.14,3.14,0,0,1-194-35.35a3.1,3.1,0,0,1,2.53,0C-185.79-32.71-176-24.46-177-11c5.14.81,15,3.21,21.91,10.1a3.14,3.14,0,0,1,.43,3.87c-.31.49-2.86,4.29-9.63,7.12,2.12,3.82,5.2,10.29,5.89,16.74a3.14,3.14,0,0,1-.73,2.37,3.18,3.18,0,0,1-2.22,1.1h-.28m-23.45-19.06a3.17,3.17,0,0,1,2.22.91c7.36,7.37,13.65,10.16,17.43,11.23a52,52,0,0,0-6.12-13.22,3.14,3.14,0,0,1-.35-2.82,3.13,3.13,0,0,1,2.07-1.94,22.82,22.82,0,0,0,8-3.89c-7.81-5.94-18.74-6.63-18.87-6.64A3.13,3.13,0,0,1-183-6.39a3.13,3.13,0,0,1-.6-2.52c2-10-3.6-16-7.38-18.8-1.55,5.66-3.19,13.41-3.22,13.51a3.11,3.11,0,0,1-2.1,2.33,3.15,3.15,0,0,1-3.08-.67,27.49,27.49,0,0,0-13.71-7.24c5,13.19,15.41,17.68,15.89,17.88A3.16,3.16,0,0,1-195.3.65a3.16,3.16,0,0,1-1.29,2.9,18.05,18.05,0,0,0-7.36,12.07h.34c7.84,0,17.14-4.11,17.24-4.16a3,3,0,0,1,1.28-.27"/></clipPath><clipPath id="clip-path-129"><path class="cls-1" d="M-185.46-.25a3.13,3.13,0,0,1-1.94-.67,3.13,3.13,0,0,1-.52-4.4c1.25-1.58,12.42-15.45,21.43-16.33a3.11,3.11,0,0,1,3.42,2.81,3.13,3.13,0,0,1-2.81,3.42c-4.82.47-13.06,8.83-17.12,14a3.14,3.14,0,0,1-2.46,1.19"/></clipPath><clipPath id="clip-path-130"><path class="cls-1" d="M-242.63,18.12a2.36,2.36,0,0,1-.78-.13,2.36,2.36,0,0,1-1.43-3c.13-.37,3.31-9.2,8.93-14.08a2.34,2.34,0,0,1,3.31.24,2.34,2.34,0,0,1-.23,3.31c-4.7,4.08-7.55,12-7.58,12.1a2.34,2.34,0,0,1-2.22,1.56"/></clipPath><clipPath id="clip-path-131"><path class="cls-1" d="M-227.31-5a3.07,3.07,0,0,1,.36,4.33,3.08,3.08,0,0,1-4.33.36,3.07,3.07,0,0,1-.36-4.33A3.07,3.07,0,0,1-227.31-5"/></clipPath><clipPath id="clip-path-132"><path class="cls-1" d="M457.71,67.89A34.47,34.47,0,0,0,400.38,42h0a35.55,35.55,0,0,0-2.76,2.73C381,60.14,387.07,83.09,378.91,91.21c-9.93,9.89-8.79,25.32,7.8,28.06,37,6.1,59-25.21,59-25.21,5.65-6.15,12-17.17,12-26.17"/></clipPath><clipPath id="clip-path-133"><path class="cls-1" d="M454.84,54.12c0,.12,0,.22,0,.34,0,10.49-7.38,23.35-14,30.52,0,0-23.77,33.72-63.93,30a19,19,0,0,0,9.74,4.28c37,6.1,59-25.21,59-25.21,5.64-6.14,12-17.17,12-26.17a34.35,34.35,0,0,0-2.87-13.77"/></clipPath><clipPath id="clip-path-134"><path class="cls-1" d="M396.35,122.92a61.9,61.9,0,0,1-10.11-.84c-8.11-1.33-13.71-5.57-15.73-11.92-2.19-6.84.26-14.87,6.39-21,2.69-2.69,3.58-8.11,4.6-14.39,1.64-10,3.67-22.4,14.18-32.12a32.22,32.22,0,0,1,2.81-2.78,37.33,37.33,0,0,1,62.08,28c0,9.72-6.51,21.28-12.61,28-1.78,2.48-20.34,27.06-51.61,27.06m26.85-86.7a31.66,31.66,0,0,0-20.93,8,33.39,33.39,0,0,0-2.53,2.52c-9.26,8.57-11,19.45-12.6,29C386,83,384.93,89.25,380.92,93.24c-4.53,4.51-6.48,10.47-5,15.17,1.35,4.21,5.34,7.07,11.23,8,34.84,5.75,56-23.73,56.24-24a3.25,3.25,0,0,1,.23-.29c5.57-6.07,11.22-16.35,11.22-24.24A31.7,31.7,0,0,0,423.2,36.22"/></clipPath><clipPath id="clip-path-135"><path class="cls-1" d="M438.8,39.3a2.86,2.86,0,0,1-1.89-5c9.13-8,10.51-23.59,10.52-23.74a2.85,2.85,0,0,1,5.69.46c-.06.73-1.56,18-12.43,27.56a2.87,2.87,0,0,1-1.89.72"/></clipPath><clipPath id="clip-path-136"><path class="cls-1" d="M482.21,32.85c-26.73-25.49-37.81.91-37.81.91s12.33,25.84,37.81-.91"/></clipPath><clipPath id="clip-path-137"><path class="cls-1" d="M482.21,32.85l-37.81.91s12.33,25.84,37.81-.91"/></clipPath><clipPath id="clip-path-138"><path class="cls-1" d="M460.72,47.84a19.05,19.05,0,0,1-2.92-.23c-10.65-1.7-15.76-12.17-16-12.62a2.79,2.79,0,0,1-.06-2.33c.19-.46,4.79-11.16,15.35-13.37,8.16-1.71,17.27,2.16,27.06,11.49a2.89,2.89,0,0,1,.89,2,2.86,2.86,0,0,1-.79,2c-8.24,8.65-16.15,13-23.56,13M447.63,33.68c1.43,2.31,5.19,7.37,11.11,8.29,5.72.91,12.22-2.14,19.35-9-7.47-6.55-14.14-9.26-19.8-8.07-5.89,1.23-9.36,6.43-10.66,8.8"/></clipPath><clipPath id="clip-path-139"><path class="cls-1" d="M394.53,73.1a1.63,1.63,0,0,1-.31,0,2.14,2.14,0,0,1-1.81-2.43c.09-.58,2.19-14.35,10.19-20.63a2.14,2.14,0,0,1,2.65,3.37c-6.67,5.24-8.58,17.76-8.6,17.89a2.15,2.15,0,0,1-2.12,1.83"/></clipPath><clipPath id="clip-path-140"><path class="cls-1" d="M412.35,45a2.8,2.8,0,1,1-4,.32,2.8,2.8,0,0,1,4-.32"/></clipPath><clipPath id="clip-path-141"><path class="cls-1" d="M275.86,90.19a60.62,60.62,0,0,0,60.56-60.67H215.3a60.61,60.61,0,0,0,60.56,60.67"/></clipPath><clipPath id="clip-path-142"><path class="cls-1" d="M326.09,29.52A60.62,60.62,0,0,1,270.7,90c1.7.14,3.42.23,5.16.23a60.62,60.62,0,0,0,60.56-60.67Z"/></clipPath><clipPath id="clip-path-143"><path class="cls-1" d="M275.86,92.78a63.27,63.27,0,0,1-63.14-63.26,2.57,2.57,0,0,1,2.58-2.58H336.42A2.58,2.58,0,0,1,339,29.52,63.27,63.27,0,0,1,275.86,92.78ZM217.94,32.11a58,58,0,0,0,115.84,0Z"/></clipPath><clipPath id="clip-path-144"><path class="cls-1" d="M275.86,79.21a49.64,49.64,0,0,0,49.59-49.69H226.26a49.65,49.65,0,0,0,49.6,49.69"/></clipPath><clipPath id="clip-path-145"><path class="cls-1" d="M275.86,81.8a52.29,52.29,0,0,1-52.18-52.28,2.58,2.58,0,0,1,2.58-2.58h99.19A2.58,2.58,0,0,1,328,29.52,52.29,52.29,0,0,1,275.86,81.8ZM228.92,32.11a47,47,0,0,0,93.88,0Z"/></clipPath><clipPath id="clip-path-146"><path class="cls-1" d="M315.13,29.52A49.66,49.66,0,0,1,270.7,78.94a51.5,51.5,0,0,0,5.16.27,49.64,49.64,0,0,0,49.59-49.69Z"/></clipPath><clipPath id="clip-path-148"><path class="cls-1" d="M278.43,52.84a2.58,2.58,0,1,1-5.15,0c0-1.43,1.16-5.53,2.58-5.53s2.57,4.1,2.57,5.53"/></clipPath><clipPath id="clip-path-149"><path class="cls-1" d="M256.51,48.52a2.57,2.57,0,1,0,4.39,2.69c.75-1.21,1.9-5.31.69-6.06s-4.34,2.16-5.08,3.37"/></clipPath><clipPath id="clip-path-150"><path class="cls-1" d="M248.4,42.53a2.58,2.58,0,0,1-2.33-4.6c1.27-.64,5.44-1.47,6.09-.2s-2.49,4.16-3.76,4.8"/></clipPath><clipPath id="clip-path-151"><path class="cls-1" d="M294.82,48.52a2.57,2.57,0,1,1-4.39,2.69c-.75-1.21-1.9-5.31-.69-6.06s4.33,2.16,5.08,3.37"/></clipPath><clipPath id="clip-path-152"><path class="cls-1" d="M302.92,42.53a2.58,2.58,0,0,0,2.33-4.6c-1.26-.64-5.44-1.47-6.08-.2s2.49,4.16,3.75,4.8"/></clipPath><clipPath id="clip-path-153"><path class="cls-1" d="M245.17,56.67a1.93,1.93,0,0,1-1.36-.56A36.71,36.71,0,0,1,236,44a1.94,1.94,0,1,1,3.59-1.46,32.74,32.74,0,0,0,6.92,10.87,1.94,1.94,0,0,1-1.37,3.31"/></clipPath><clipPath id="clip-path-154"><path class="cls-1" d="M237.31,35.7a2.54,2.54,0,1,1-3.57.3,2.55,2.55,0,0,1,3.57-.3"/></clipPath><clipPath id="clip-path-155"><path class="cls-1" d="M-73,112.87c-10.38,38.06,20.11,35,20.11,35s18-24.7-20.11-35"/></clipPath><clipPath id="clip-path-156"><path class="cls-1" d="M-73,112.87l20.11,35s18-24.7-20.11-35"/></clipPath><clipPath id="clip-path-157"><path class="cls-1" d="M-54.39,151c-3.82,0-12.72-.8-18.57-7.71s-6.76-17.31-3-31.25a3.06,3.06,0,0,1,3.75-2.14c14,3.79,22.56,10,25.52,18.38,3.82,10.86-3.43,21-3.74,21.41A3,3,0,0,1-52.56,151a15.81,15.81,0,0,1-1.83.08m-16.39-34.34c-2.35,10.34-1.52,18,2.49,22.7,4.15,4.9,10.81,5.52,13.71,5.54,1.44-2.51,4.29-8.62,2.15-14.65-2.08-5.82-8.24-10.39-18.35-13.59"/></clipPath><clipPath id="clip-path-158"><path class="cls-1" d="M-71.29,202.67a14,14,0,0,1-14,14,14,14,0,0,1-14-14,14,14,0,0,1,14-14,14,14,0,0,1,14,14"/></clipPath><clipPath id="clip-path-160"><path class="cls-1" d="M-85.33,205.91a17.23,17.23,0,0,0,13.58-6.61,14,14,0,0,0-13.58-10.64A14,14,0,0,0-98.92,199.3a17.26,17.26,0,0,0,13.59,6.61"/></clipPath><clipPath id="clip-path-161"><path class="cls-1" d="M-81.77,196a3.55,3.55,0,0,1-3.56,3.55A3.56,3.56,0,0,1-88.9,196a3.56,3.56,0,0,1,3.57-3.56A3.56,3.56,0,0,1-81.77,196"/></clipPath><clipPath id="clip-path-162"><path class="cls-1" d="M-85.33,219.73a17.1,17.1,0,0,1-17.1-17.06,17.1,17.1,0,0,1,17.1-17.06,17.1,17.1,0,0,1,17.1,17.06,17.1,17.1,0,0,1-17.1,17.06m0-28a11,11,0,0,0-11,11,11,11,0,0,0,11,11,11,11,0,0,0,11-11,11,11,0,0,0-11-11"/></clipPath><clipPath id="clip-path-163"><path class="cls-1" d="M-93.39,180.62a14,14,0,0,1-14,14,14,14,0,0,1-14-14,14,14,0,0,1,14-14,14,14,0,0,1,14,14"/></clipPath><clipPath id="clip-path-165"><path class="cls-1" d="M-107.43,183.86a17.26,17.26,0,0,0,13.59-6.61,14,14,0,0,0-13.59-10.64A14,14,0,0,0-121,177.25a17.26,17.26,0,0,0,13.59,6.61"/></clipPath><clipPath id="clip-path-166"><path class="cls-1" d="M-103.87,174a3.55,3.55,0,0,1-3.56,3.55A3.55,3.55,0,0,1-111,174a3.55,3.55,0,0,1,3.56-3.55,3.55,3.55,0,0,1,3.56,3.55"/></clipPath><clipPath id="clip-path-167"><path class="cls-1" d="M-107.43,197.68a17.09,17.09,0,0,1-17.1-17.05,17.11,17.11,0,0,1,17.1-17.07,17.11,17.11,0,0,1,17.1,17.07,17.09,17.09,0,0,1-17.1,17.05m0-28a11,11,0,0,0-11,11,11,11,0,0,0,11,11,11,11,0,0,0,11-11,11,11,0,0,0-11-11"/></clipPath><clipPath id="clip-path-168"><path class="cls-1" d="M-37.22,168.68a14,14,0,0,1-14,14,14,14,0,0,1-14.05-14,14,14,0,0,1,14.05-14,14,14,0,0,1,14,14"/></clipPath><clipPath id="clip-path-170"><path class="cls-1" d="M-51.26,171.92a17.23,17.23,0,0,0,13.58-6.61,14,14,0,0,0-13.58-10.64,14,14,0,0,0-13.59,10.64,17.25,17.25,0,0,0,13.59,6.61"/></clipPath><clipPath id="clip-path-171"><path class="cls-1" d="M-47.7,162a3.56,3.56,0,0,1-3.56,3.55A3.56,3.56,0,0,1-54.83,162a3.56,3.56,0,0,1,3.57-3.56A3.56,3.56,0,0,1-47.7,162"/></clipPath><clipPath id="clip-path-172"><path class="cls-1" d="M-51.26,185.74a17.1,17.1,0,0,1-17.1-17.06,17.1,17.1,0,0,1,17.1-17.06,17.1,17.1,0,0,1,17.1,17.06,17.1,17.1,0,0,1-17.1,17.06m0-28a11,11,0,0,0-11,11,11,11,0,0,0,11,11,11,11,0,0,0,11-11,11,11,0,0,0-11-11"/></clipPath><clipPath id="clip-path-173"><path class="cls-1" d="M-59.32,146.63a14,14,0,0,1-14,14,14,14,0,0,1-14-14,14,14,0,0,1,14-14,14,14,0,0,1,14,14"/></clipPath><clipPath id="clip-path-175"><path class="cls-1" d="M-73.36,149.87a17.23,17.23,0,0,0,13.58-6.61,14,14,0,0,0-13.58-10.64,14,14,0,0,0-13.59,10.64,17.26,17.26,0,0,0,13.59,6.61"/></clipPath><clipPath id="clip-path-176"><path class="cls-1" d="M-69.8,140a3.56,3.56,0,0,1-3.56,3.55A3.56,3.56,0,0,1-76.93,140a3.57,3.57,0,0,1,3.57-3.56A3.57,3.57,0,0,1-69.8,140"/></clipPath><clipPath id="clip-path-177"><path class="cls-1" d="M-73.36,163.69a17.09,17.09,0,0,1-17.1-17.05,17.11,17.11,0,0,1,17.1-17.07,17.11,17.11,0,0,1,17.1,17.07,17.09,17.09,0,0,1-17.1,17.05m0-28a11,11,0,0,0-11,11,11,11,0,0,0,11,11,11,11,0,0,0,11-11,11,11,0,0,0-11-11"/></clipPath><clipPath id="clip-path-178"><path class="cls-1" d="M-65.24,174.59a14,14,0,0,1-14,14,14,14,0,0,1-14-14,14,14,0,0,1,14-14,14,14,0,0,1,14,14"/></clipPath><clipPath id="clip-path-180"><path class="cls-1" d="M-79.28,177.82a17.26,17.26,0,0,0,13.59-6.61,14,14,0,0,0-13.59-10.64,14,14,0,0,0-13.59,10.64,17.26,17.26,0,0,0,13.59,6.61"/></clipPath><clipPath id="clip-path-181"><path class="cls-1" d="M-75.72,167.92a3.56,3.56,0,0,1-3.56,3.56,3.56,3.56,0,0,1-3.56-3.56,3.55,3.55,0,0,1,3.56-3.55,3.55,3.55,0,0,1,3.56,3.55"/></clipPath><clipPath id="clip-path-182"><path class="cls-1" d="M-79.28,191.65a17.1,17.1,0,0,1-17.1-17.06,17.11,17.11,0,0,1,17.1-17.07,17.11,17.11,0,0,1,17.1,17.07,17.1,17.1,0,0,1-17.1,17.06m0-28a11,11,0,0,0-11,11,11,11,0,0,0,11,11,11,11,0,0,0,11-11,11,11,0,0,0-11-11"/></clipPath><clipPath id="clip-path-183"><path class="cls-1" d="M-87.34,152.54a14,14,0,0,1-14,14,14,14,0,0,1-14.05-14,14,14,0,0,1,14.05-14,14,14,0,0,1,14,14"/></clipPath><clipPath id="clip-path-185"><path class="cls-1" d="M-101.38,155.77a17.26,17.26,0,0,0,13.59-6.61,14,14,0,0,0-13.59-10.64A14,14,0,0,0-115,149.16a17.26,17.26,0,0,0,13.59,6.61"/></clipPath><clipPath id="clip-path-186"><path class="cls-1" d="M-97.82,145.87a3.56,3.56,0,0,1-3.56,3.56,3.56,3.56,0,0,1-3.56-3.56,3.55,3.55,0,0,1,3.56-3.55,3.55,3.55,0,0,1,3.56,3.55"/></clipPath><clipPath id="clip-path-187"><path class="cls-1" d="M-101.38,169.6a17.1,17.1,0,0,1-17.1-17.06,17.1,17.1,0,0,1,17.1-17.06,17.1,17.1,0,0,1,17.1,17.06,17.1,17.1,0,0,1-17.1,17.06m0-28a11,11,0,0,0-11,11,11,11,0,0,0,11,11,11,11,0,0,0,11-11,11,11,0,0,0-11-11"/></clipPath><clipPath id="clip-path-188"><path class="cls-1" d="M-44.25,195.52a14,14,0,0,1-14,14,14,14,0,0,1-14-14,14,14,0,0,1,14-14,14,14,0,0,1,14,14"/></clipPath><clipPath id="clip-path-190"><path class="cls-1" d="M-58.3,198.75a17.26,17.26,0,0,0,13.59-6.61A14,14,0,0,0-58.3,181.51a14,14,0,0,0-13.59,10.63,17.26,17.26,0,0,0,13.59,6.61"/></clipPath><clipPath id="clip-path-191"><path class="cls-1" d="M-54.74,188.85a3.56,3.56,0,0,1-3.56,3.56,3.56,3.56,0,0,1-3.56-3.56,3.55,3.55,0,0,1,3.56-3.55,3.55,3.55,0,0,1,3.56,3.55"/></clipPath><clipPath id="clip-path-192"><path class="cls-1" d="M-58.3,212.58a17.1,17.1,0,0,1-17.1-17.06,17.1,17.1,0,0,1,17.1-17.06,17.1,17.1,0,0,1,17.1,17.06,17.1,17.1,0,0,1-17.1,17.06m0-28a11,11,0,0,0-11,11,11,11,0,0,0,11,11,11,11,0,0,0,11-11,11,11,0,0,0-11-11"/></clipPath><clipPath id="clip-path-193"><path class="cls-1" d="M-99.14,209.14a14,14,0,0,1-14,14,14,14,0,0,1-14-14,14,14,0,0,1,14-14,14,14,0,0,1,14,14"/></clipPath><clipPath id="clip-path-195"><path class="cls-1" d="M-113.18,212.38a17.29,17.29,0,0,0,13.59-6.61,14,14,0,0,0-13.59-10.64,14,14,0,0,0-13.59,10.64,17.29,17.29,0,0,0,13.59,6.61"/></clipPath><clipPath id="clip-path-196"><path class="cls-1" d="M-109.62,202.48a3.55,3.55,0,0,1-3.56,3.55,3.55,3.55,0,0,1-3.56-3.55,3.56,3.56,0,0,1,3.56-3.56,3.56,3.56,0,0,1,3.56,3.56"/></clipPath><clipPath id="clip-path-197"><path class="cls-1" d="M-113.18,226.2a17.1,17.1,0,0,1-17.1-17.06,17.1,17.1,0,0,1,17.1-17.06,17.1,17.1,0,0,1,17.1,17.06,17.1,17.1,0,0,1-17.1,17.06m0-28a11,11,0,0,0-11,11,11,11,0,0,0,11,11,11,11,0,0,0,11-11,11,11,0,0,0-11-11"/></clipPath><clipPath id="clip-path-198"><path class="cls-1" d="M-60.18,158.64a3.05,3.05,0,0,1-2.06-.81,3.05,3.05,0,0,1-.18-4.31c9.44-10.23,17-14.71,22.8-16.34a20.39,20.39,0,0,1,2.2-2.37A16.81,16.81,0,0,1-19,131.45a3.05,3.05,0,0,1,1.61,4,3.08,3.08,0,0,1-4,1.6,10.24,10.24,0,0,0-8.4,0,12.36,12.36,0,0,1,2.49,1.09,11.29,11.29,0,0,1,5.3,13.05c-1.14,3.54-4.71,7.13-11.19,6.48-6.65-.64-8.93-4.54-9.69-6.8a11.66,11.66,0,0,1-.38-5.51c-4.15,2.35-9,6.28-14.6,12.3a3.1,3.1,0,0,1-2.26,1m24.25-16c-1.29,2.23-1.8,4.6-1.22,6.32.52,1.55,2,2.45,4.49,2.69,1.79.17,4.07-.09,4.79-2.29a5.24,5.24,0,0,0-2.56-5.91,8.41,8.41,0,0,0-5.5-.81"/></clipPath></defs><g class="cls-67"><g class="cls-68"><rect class="cls-69" x="15.04" y="22.87" width="106.55" height="102.18"/></g></g><g class="cls-70"><g class="cls-68"><rect class="cls-71" x="61.03" y="28.61" width="60.55" height="96.44"/></g></g><g class="cls-72"><g class="cls-68"><rect class="cls-73" x="45.5" y="40.52" width="45.62" height="21.85"/></g></g><g class="cls-74"><g class="cls-68"><rect class="cls-73" x="11.72" y="19.54" width="113.19" height="108.84"/></g></g><g class="cls-75"><g class="cls-68"><rect class="cls-73" x="58.69" y="8.88" width="27.99" height="53.49"/></g></g><g class="cls-76"><g class="cls-68"><rect class="cls-77" x="27.4" y="13.97" width="44.91" height="35.49"/></g></g><g class="cls-78"><g class="cls-68"><rect class="cls-79" x="27.4" y="16.64" width="44.9" height="32.82"/></g></g><g class="cls-80"><g class="cls-68"><rect class="cls-73" x="24.08" y="10.64" width="51.56" height="42.14"/></g></g><g class="cls-81"><g class="cls-68"><rect class="cls-82" x="33.66" y="51.26" width="32.39" height="22.81"/></g></g><g class="cls-83"><g class="cls-68"><rect class="cls-82" x="27.79" y="43.19" width="16.52" height="16.52"/></g></g></svg>