<svg id="backside" xmlns="http://www.w3.org/2000/svg" viewBox="0 0 217.69 215.91"><defs><style>.cls-1{fill:#e52227;}.cls-2{fill:#fff;}.cls-3{fill:#c41718;}.cls-4{fill:#cfe4f7;}.cls-5{fill:#1d1d1b;}.cls-6,.cls-7{fill:#f8e923;}.cls-6{stroke:#264194;}.cls-6,.cls-7,.cls-8{stroke-miterlimit:10;}.cls-7{stroke:#304093;stroke-width:2px;}.cls-8{fill:#315faa;stroke:#1d1d1b;}</style></defs><path class="cls-1" d="M221.34,113.19c0,59.53-48.58,107.78-108.5,107.79-60.2,0-115-56.21-108.5-107.79,7.49-59,48.57-107.78,108.5-107.78S221.34,53.67,221.34,113.19Z" transform="translate(-3.65 -5.07)"/><polygon class="cls-2" points="216.49 94.58 204.08 103.05 174.94 115.92 148.28 122.44 143.01 135.71 135.21 141.1 123.16 146.69 111.26 147 96.49 143.25 87.23 138.03 80.84 127.3 79.3 121.16 67.09 119.28 51.62 114.99 35.06 107.67 35.06 120.95 39.27 141.81 46.94 158.85 56.52 174.6 68.87 187.8 80.15 196.96 92.71 204.84 104.42 209.52 117.83 213.78 123.8 214.84 134.23 213.14 148.07 208.67 166.38 199.94 178.09 191.85 189.16 180.14 197.68 170.77 205.55 157.15 212.37 141.81 215.93 125.85 216.84 113.87 216.84 103.7 216.49 94.58"/><path class="cls-3" d="M126.65,6.53c0,.59-3.36.84-10.86,3a94.79,94.79,0,0,0-13.73,4.95,83.81,83.81,0,0,0-12,6.87A124.52,124.52,0,0,0,76.83,31.6,98.51,98.51,0,0,0,65.65,42.14a89,89,0,0,0-9.74,13.73,85.36,85.36,0,0,0-7,13.41,84.77,84.77,0,0,0-4.63,16c-1,5.26-1.54,7.89-1.76,10.22-.29,3-.16,3.71-.64,4.15-3.54,3.26-18.92-13.53-28.58-18.36-.74-.37-2.94-1.42-3.45-3.45-.46-1.84.7-3.59,1.21-4.38,2.6-4,4.11-8.62,6.71-12.61,4.31-6.61,5.19-9.06,7.34-12.46,5.74-9,20.54-24.81,42.8-34.49A105.71,105.71,0,0,1,103.5,5.41C114.81,4.57,126.59,5.42,126.65,6.53Z" transform="translate(-3.65 -5.07)"/><path class="cls-4" d="M38.5,113c.42,3.07,0,3.24.54,8.54,1.39,13.66,3.24,22.32,6,29.59a114.85,114.85,0,0,0,24.32,38.52,98.49,98.49,0,0,0,33,22.35c13.58,5.48,26.49,6.83,26.29,8.2-.11.82-4.76.8-11.49.75-10.43-.08-15.64-.12-22.36-1.07a107.47,107.47,0,0,1-29.38-8.51,107.53,107.53,0,0,1-37.69-30.45C17,167.27,11.3,156.05,9,149.1c-1.34-4.07-7.38-15.36-4.64-38,1.23-10.2,2-18.85,1.93-20.13-.07-1.58-.19-4,1.28-5.11C12.81,81.82,36.08,95.37,38.5,113Z" transform="translate(-3.65 -5.07)"/><polygon class="cls-5" points="214.43 81.57 203.33 89.03 188.18 97.62 174.63 102.86 163.47 105.94 147.14 108.31 138.62 108.36 135.41 122.51 148.5 122.86 161.23 121.43 173.11 118.57 182.2 115.59 190.31 111.38 198.9 106.81 205.81 101.97 213.31 96.8 216.84 93.59 216.14 87.12 214.43 81.57"/><polygon class="cls-5" points="6.99 69 17.5 78.1 31.13 88.96 43.69 96.25 54.23 101.04 69.98 105.94 78.39 107.32 79.35 121.8 66.36 120.1 54.02 116.69 42.73 112.01 34.22 107.64 26.87 102.21 19.1 96.36 13.03 90.5 6.43 84.22 3.45 80.5 4.59 74.19 6.99 69"/><ellipse class="cls-5" cx="114.22" cy="112.91" rx="35.98" ry="37.42"/><ellipse class="cls-2" cx="114.53" cy="113.31" rx="24.59" ry="24.35"/><circle class="cls-5" cx="115.01" cy="113.87" r="17.62"/><ellipse class="cls-2" cx="115.84" cy="115.44" rx="13.55" ry="13.23"/><ellipse class="cls-5" cx="160.98" cy="89.44" rx="13.01" ry="12.77"/><ellipse class="cls-2" cx="160.9" cy="89.57" rx="12.03" ry="11.47"/><polygon class="cls-6" points="79.35 32.55 79.79 35.35 82.23 37.1 83.82 37.38 86.9 36.47 87.97 33.31 87.73 31.2 85.74 29.16 83.86 28.92 81.59 29.44 79.83 30.68 79.35 32.55"/><polygon class="cls-7" points="72.97 29.73 74.72 33.46 76.42 36.87 77.44 38.57 79.35 37.45 77.65 33.46 80.15 31.22 81.22 28.99 80.47 26.8 77.65 24.94 73.71 25.79 70.57 27.02 69.77 28.35 70.62 30.05 71.37 30.53 72.97 29.73"/><polygon class="cls-6" points="86.26 25.57 86.82 28.52 87.34 31.64 87.34 34.79 87.34 36.03 89.49 36.03 89.49 31.8 91.13 32.11 93.6 34.35 96.64 35.15 97 33.43 92.81 30.8 91.25 29.32 92.53 27.6 93.16 26.05 91.17 24.89 89.97 27.44 88.85 27.84 88.57 24.89 86.26 25.57"/><polygon class="cls-6" points="94.56 26.93 93.64 28.44 94.1 30.46 95.84 32.03 100.07 32.03 101.39 30.24 100.11 29.04 98.11 29.76 98.03 28.68 99.87 27.52 99.99 25.89 97.52 25.21 95.6 25.93 94.56 26.93"/><polygon class="cls-6" points="98.31 21.34 96.16 23.93 99.55 22.45 98.31 21.34"/><polygon class="cls-6" points="102.31 32.79 102.67 24.89 104.58 24.89 105.26 27.92 106.9 24.65 109.13 27.24 108.17 31.24 109.57 35.03 106.42 31.24 105.42 30.46 104.18 30.92 104.34 33.11 102.31 33.55 102.31 32.79"/><polygon class="cls-6" points="112.21 27.4 114 28.44 115.24 31.24 114.52 32.99 112.84 34.55 110.21 33.71 108.93 31.28 109.73 28.62 112.21 27.4"/><polygon class="cls-6" points="121.91 27.08 120.31 34.55 119.15 37.58 117.75 36.83 117.48 31.68 116.28 33.39 115.84 35.51 114.24 35.03 115.84 29.36 115.24 26.49 115.08 25.21 117.32 25.37 117.8 28.24 118.55 29.2 119.59 26.53 121.67 26.53 121.91 27.08"/><polygon class="cls-6" points="73.82 50.49 76.58 61.99 83.66 60.07 80.04 49.43 85.79 47.72 83.66 40.59 66.74 44.58 68.39 52.25 73.82 50.49"/><polygon class="cls-6" points="90.9 42.61 97.52 42.61 105.38 60.34 105.38 62.31 98.73 61.99 97.86 59.01 91.38 59.17 90.58 62.31 83.98 62.31 90.9 42.61"/><polygon class="cls-6" points="105.65 40.59 105.38 45.01 115.49 45.38 104.47 54.8 104.26 60.23 121.4 60.76 121.03 56.98 109.57 56.45 123.16 46.39 123.8 40.27 105.65 40.59"/><path class="cls-8" d="M152.27,52.28l5.51,1.91L161,57.78l.48,4.32-6.39,4.63-9.42,1.35-6.55.4h-8.22l-5.75-1.83-4.07-2.56-1.2-3.71.56-4,3.67-3.2s5.27-1.27,5.51-1.35,8.7-.48,8.7-.48l7.51.32Z" transform="translate(-3.65 -5.07)"/><polygon class="cls-2" points="125.35 52.61 118.97 53.41 126.58 54.26 120.78 57.88 127.22 56.76 120.83 66.18 130.84 58.09 131.42 62.67 136.05 57.08 146.49 63.36 140.2 54.9 147.18 53.56 140.36 51.49 145.26 48.83 136.64 48.83 131.1 47.34 131.05 49.89 123.06 47.34 127.38 51.17 125.35 52.61"/><polygon class="cls-8" points="139.75 28.84 132.65 35.63 127.14 44.57 126.26 50.08 128.09 53.51 133.36 53.51 141.99 49.76 149.57 43.77 154.52 36.83 157.08 30.04 156.68 26.29 153.56 23.25 148.77 23.25 143.74 25.89 139.75 28.84"/><polygon class="cls-2" points="142.81 34.08 138.93 36.96 137.65 39.83 137.91 41.91 140.23 42.12 143.93 38.87 145.26 36.59 144.51 34.78 143.61 34.3 142.81 34.08"/><path class="cls-5" d="M49,62.73a7.53,7.53,0,0,0-4.71.72,8.22,8.22,0,0,0-3.75,4.79,10.49,10.49,0,0,0-.24,6.62,8.16,8.16,0,0,0,3.35,5,7.79,7.79,0,0,0,5.83.88v4.55a11,11,0,0,1-5.91-.4,12,12,0,0,1-6.08-5.33c-.76-1.18-3.86-6-2.09-11.73a13.42,13.42,0,0,1,5.38-7,15.09,15.09,0,0,1,8.73-2.66v4.58Z" transform="translate(-3.65 -5.07)"/><path class="cls-5" d="M65.9,62.73a7.52,7.52,0,0,0-4.71.72,8.25,8.25,0,0,0-3.76,4.79,10.68,10.68,0,0,0-.47,1.7.36.36,0,0,0,0,.11,10.26,10.26,0,0,0,.25,4.81,8.18,8.18,0,0,0,3.36,5,7.79,7.79,0,0,0,5.83.88v4.55a11,11,0,0,1-5.91-.4,12,12,0,0,1-6.09-5.33c-.75-1.18-3.86-6-2.08-11.73a13.37,13.37,0,0,1,5.37-7,15.11,15.11,0,0,1,8.73-2.66v4.58Z" transform="translate(-3.65 -5.07)"/><polygon class="cls-5" points="60.23 65.33 60.23 68.08 51.09 68.23 51.09 65.41 60.23 65.33"/></svg>