<svg xmlns="http://www.w3.org/2000/svg" xmlns:xlink="http://www.w3.org/1999/xlink" viewBox="0 0 235.78 234"><defs><style>.cls-1{isolation:isolate;}.cls-2{fill:none;stroke:#fff;stroke-miterlimit:10;stroke-width:10px;}.cls-3{fill:url(#linear-gradient);}.cls-4{fill:#fff;opacity:0.4;mix-blend-mode:screen;}.cls-5{fill:#317172;}.cls-6{fill:#582e30;}.cls-7{fill:#f5f5f5;}.cls-8{fill:#e77678;}.cls-9{fill:#bc504f;}.cls-10{fill:#c33248;}.cls-11{fill:#dadada;mix-blend-mode:multiply;}</style><linearGradient id="linear-gradient" x1="117.89" y1="9.49" x2="117.89" y2="224.51" gradientUnits="userSpaceOnUse"><stop offset="0" stop-color="#87c8ad"/><stop offset="0.36" stop-color="#84c6ab"/><stop offset="0.58" stop-color="#7cc1a5"/><stop offset="0.77" stop-color="#6db79a"/><stop offset="0.94" stop-color="#59a98b"/><stop offset="1" stop-color="#4fa384"/></linearGradient></defs><g class="cls-1"><g id="pokemons"><g id="Layer_4" data-name="Layer 4"><ellipse class="cls-2" cx="117.89" cy="117" rx="112.89" ry="112"/></g><circle class="cls-3" cx="117.89" cy="117" r="107.51"/><path class="cls-4" d="M112.89,14.21C69.59,22.84,39.13,46,18.77,85.36,22.61,41.46,69.63,6,112.89,14.21Z" transform="translate(5 5)"/><path class="cls-5" d="M136.29,109.18c-1.64-8,2.26-17.45,10.45-19.94C142.08,95.18,139.21,102.28,136.29,109.18Z" transform="translate(5 5)"/><path class="cls-5" d="M89.49,109.18c1.63-8-2.27-17.45-10.45-19.94C83.7,95.18,86.57,102.28,89.49,109.18Z" transform="translate(5 5)"/><path class="cls-5" d="M135.92,67.94s.37,8.91,0,10.07-10.63,7.94-11.6,8.52-6.78-9.29-6.39-11S134.16,67,135.92,67.94Z" transform="translate(5 5)"/><path class="cls-5" d="M83.51,44.81c4.09-3.33,22.13-16.66,25.42-18.63s22.72,6.79,23.85,9.31S105,75.84,103,77.2,80.3,47.41,83.51,44.81Z" transform="translate(5 5)"/><path class="cls-5" d="M83.17,77.2c2-1.9,6.11-1.19,8,0s6.2,9.36,6.2,9.36-6,4.81-7.55,4.62S83.17,77.2,83.17,77.2Z" transform="translate(5 5)"/><path class="cls-5" d="M120.44,151.58c.93-1.29-.07-2.93,2.71-3.48C122.86,150.3,121.41,150.24,120.44,151.58Z" transform="translate(5 5)"/><path class="cls-5" d="M105.34,151.58c-.93-1.29.07-2.93-2.71-3.48C102.92,150.3,104.37,150.24,105.34,151.58Z" transform="translate(5 5)"/><path class="cls-6" d="M112.89,186.05c-45.89,0-77-32.24-77.54-41.24,11.91,9.87,42.69,11,53.15,11.32s21.48,8.43,24.39,8.43,13.94-8.14,24.39-8.43,41.24-1.45,53.15-11.32C189.85,153.81,158.77,186.05,112.89,186.05Z" transform="translate(5 5)"/><path class="cls-7" d="M172.11,158.59c-.5,2.16,4-.69,4.28-6.68a5.23,5.23,0,0,0,0-.56c-1.84.52-3.75,1-5.69,1.4C171.5,154.26,172.52,156.82,172.11,158.59Z" transform="translate(5 5)"/><path class="cls-7" d="M53.67,158.59c-.42-1.77.61-4.33,1.41-5.84-1.95-.42-3.85-.88-5.69-1.4a5.23,5.23,0,0,0,0,.56C49.64,157.9,54.17,160.75,53.67,158.59Z" transform="translate(5 5)"/><path class="cls-8" d="M112.89,164.56c-2.91,0-13.94-8.14-24.39-8.43-3.54-.09-9.4-.29-16.06-.89a58.45,58.45,0,0,0-15.8,13.23,98.76,98.76,0,0,0,112.49,0,58.4,58.4,0,0,0-15.79-13.23c-6.66.6-12.52.8-16.06.89C126.83,156.42,115.79,164.56,112.89,164.56Z" transform="translate(5 5)"/><path class="cls-9" d="M112.89,165.93c17.21,0,33.16,3.16,46.28,8.54a98.67,98.67,0,0,0,10-6,58.4,58.4,0,0,0-15.79-13.23c-6.66.6-12.52.8-16.06.89-10.45.29-21.49,8.43-24.39,8.43S99,156.42,88.5,156.13c-3.54-.09-9.4-.29-16.06-.89a58.45,58.45,0,0,0-15.8,13.23,100,100,0,0,0,10,6C79.73,169.09,95.68,165.93,112.89,165.93Z" transform="translate(5 5)"/><path class="cls-7" d="M139.61,128.68c-1.75-11.58,9.71-42.39,33.93-48.07,12.09-2.64,20,37.07,16.11,45.14C180.54,132.32,148.61,131.47,139.61,128.68Z" transform="translate(5 5)"/><path class="cls-10" d="M167.82,82.51c-20.3,8.73-29.82,35.55-28.21,46.17,5.57,1.73,19.93,2.71,32.23,1.65C182.15,106.13,175.78,91.47,167.82,82.51Z" transform="translate(5 5)"/><path class="cls-11" d="M176.44,86.66c3-.6,5.78,1.13,8.22,4.24-2.91-6.64-6.74-11.25-11.12-10.29-24.22,5.68-35.68,36.49-33.93,48.07.35.1.74.21,1.15.31C142.24,115.2,154.15,91.41,176.44,86.66Z" transform="translate(5 5)"/><path class="cls-7" d="M159.77,99.21c-2.54,0-4.6,5.15-4.6,11.49s2.06,11.49,4.6,11.49,4.59-5.15,4.59-11.49S162.3,99.21,159.77,99.21Z" transform="translate(5 5)"/><path class="cls-7" d="M86.17,128.68c1.75-11.58-9.71-42.39-33.94-48.07C40.15,78,32.29,117.68,36.13,125.75,45.24,132.32,77.17,131.47,86.17,128.68Z" transform="translate(5 5)"/><path class="cls-10" d="M58,82.51c20.3,8.73,29.81,35.55,28.21,46.17-5.57,1.73-19.93,2.71-32.23,1.65C43.63,106.13,50,91.47,58,82.51Z" transform="translate(5 5)"/><path class="cls-11" d="M49.34,86.66c-3-.6-5.78,1.13-8.22,4.24C44,84.26,47.85,79.65,52.23,80.61c24.23,5.68,35.69,36.49,33.94,48.07-.35.1-.74.21-1.16.31C83.54,115.2,71.63,91.41,49.34,86.66Z" transform="translate(5 5)"/><path class="cls-7" d="M66,99.21c2.54,0,4.59,5.15,4.59,11.49s-2,11.49-4.59,11.49S61.42,117,61.42,110.7,63.48,99.21,66,99.21Z" transform="translate(5 5)"/></g></g></svg>