<svg xmlns="http://www.w3.org/2000/svg" xmlns:xlink="http://www.w3.org/1999/xlink" viewBox="0 0 235.78 234"><defs><style>.cls-1{isolation:isolate;}.cls-2{fill:none;stroke:#fff;stroke-miterlimit:10;stroke-width:10px;}.cls-3{fill:url(#linear-gradient);}.cls-4{fill:#582e30;}.cls-5{fill:#fffffd;}.cls-6{fill:#22241c;}.cls-7{fill:#328c7a;}.cls-8{fill:#23211c;}.cls-9{fill:#5b3116;}.cls-10{fill:#f18f89;}.cls-11{fill:#bc504f;}.cls-12{fill:#fff;opacity:0.4;mix-blend-mode:screen;}</style><linearGradient id="linear-gradient" x1="117.89" y1="9.49" x2="117.89" y2="224.51" gradientUnits="userSpaceOnUse"><stop offset="0" stop-color="#f0841d"/><stop offset="0.42" stop-color="#ed821d"/><stop offset="0.69" stop-color="#e57a1d"/><stop offset="0.91" stop-color="#d66d1c"/><stop offset="1" stop-color="#ce661c"/></linearGradient></defs><g class="cls-1"><g id="pokemons"><g id="Layer_4" data-name="Layer 4"><ellipse class="cls-2" cx="117.89" cy="117" rx="112.89" ry="112"/></g><circle class="cls-3" cx="117.89" cy="117" r="107.51"/><path class="cls-4" d="M112.89,202c59.24,0,80.56-45.62,87.18-56.29-28.69,16.93-66.38,22.08-87.18,22.08S54.4,162.65,25.7,145.72C32.32,156.39,53.65,202,112.89,202Z" transform="translate(5 5)"/><path class="cls-5" d="M163.86,119.87c-3.06-8.43-3.12-61.59,15.55-63,21.51-1.62,27,55.25,15.65,63.23S165.93,125.6,163.86,119.87Z" transform="translate(5 5)"/><path class="cls-6" d="M173.84,67.88a11.26,11.26,0,0,0-7.22,3.4c-5.52,16.78-4.83,42.9-2.76,48.59,1.73,4.78,14.35,7.29,25.09,3.37,3-6.09,4.55-14.46,4.08-23.6C192.12,81.61,183.52,67.39,173.84,67.88Z" transform="translate(5 5)"/><path class="cls-7" d="M176.26,91.09h-.12c-2.28,0-4.69,3.6-6.61,9.81A94.19,94.19,0,0,0,166,122.38c3.7,2.52,11.24,3.64,18.68,2.07C184.83,106.33,181.09,91.28,176.26,91.09Z" transform="translate(5 5)"/><path class="cls-8" d="M174.59,80.32c-5.51.28-9.61,7.77-9.15,16.73s5.29,16,10.8,15.71,9.6-7.77,9.15-16.73S180.09,80,174.59,80.32Z" transform="translate(5 5)"/><ellipse class="cls-5" cx="179.99" cy="85.56" rx="6.32" ry="10.62" transform="translate(3.01 9.33) rotate(-1.37)"/><path class="cls-5" d="M61.92,119.87c3.06-8.43,3.12-61.59-15.55-63-21.52-1.62-27,55.25-15.65,63.23S59.85,125.6,61.92,119.87Z" transform="translate(5 5)"/><path class="cls-6" d="M51.93,67.88a11.29,11.29,0,0,1,7.23,3.4c5.52,16.78,4.83,42.9,2.76,48.59-1.73,4.78-14.35,7.29-25.1,3.37-2.94-6.09-4.54-14.46-4.08-23.6C33.66,81.61,42.25,67.39,51.93,67.88Z" transform="translate(5 5)"/><path class="cls-7" d="M49.51,91.09h.12c2.29,0,4.7,3.6,6.62,9.81a94.19,94.19,0,0,1,3.51,21.48c-3.71,2.52-11.24,3.64-18.68,2.07C41,106.33,44.68,91.28,49.51,91.09Z" transform="translate(5 5)"/><ellipse class="cls-8" cx="50.37" cy="96.54" rx="16.24" ry="9.99" transform="translate(-43.61 146.93) rotate(-87.08)"/><path class="cls-5" d="M39.47,85.41C39.33,91.28,42,96.1,45.53,96.18s6.44-4.6,6.58-10.46S49.53,75,46,75,39.61,79.55,39.47,85.41Z" transform="translate(5 5)"/><circle class="cls-9" cx="127.26" cy="157.12" r="2.34"/><path class="cls-9" d="M103.52,149.78a2.34,2.34,0,1,0,2.34,2.34A2.34,2.34,0,0,0,103.52,149.78Z" transform="translate(5 5)"/><path class="cls-10" d="M176.11,178a87.45,87.45,0,0,0-22.65-14.84,199.09,199.09,0,0,1-40.57,4.68,198.94,198.94,0,0,1-40.57-4.68A87.45,87.45,0,0,0,49.67,178c13.56,12.7,33.67,24,63.22,24S162.55,190.66,176.11,178Z" transform="translate(5 5)"/><path class="cls-11" d="M112.89,172c20.73,0,39.39,5.63,52.46,14.63A89.76,89.76,0,0,0,176.11,178a87.45,87.45,0,0,0-22.65-14.84,199.09,199.09,0,0,1-40.57,4.68,198.94,198.94,0,0,1-40.57-4.68A87.45,87.45,0,0,0,49.67,178a89,89,0,0,0,10.76,8.65C73.5,177.61,92.16,172,112.89,172Z" transform="translate(5 5)"/><path class="cls-5" d="M137.91,199a89.06,89.06,0,0,0,11.5-3.79c-.92-4.18-3-7.11-5.52-7.11C140.72,188.09,138.12,192.9,137.91,199Z" transform="translate(5 5)"/><path class="cls-5" d="M76.37,195.2A89.06,89.06,0,0,0,87.87,199c-.21-6.09-2.81-10.9-6-10.9C79.41,188.09,77.29,191,76.37,195.2Z" transform="translate(5 5)"/><path class="cls-5" d="M149.09,164c.86,4,2.89,6.82,5.26,6.82,2.82,0,5.16-4,5.61-9.25C156.3,162.52,152.66,163.32,149.09,164Z" transform="translate(5 5)"/><path class="cls-5" d="M65.82,161.59c.45,5.25,2.79,9.25,5.61,9.25,2.37,0,4.39-2.81,5.25-6.82C73.12,163.32,69.48,162.52,65.82,161.59Z" transform="translate(5 5)"/><path class="cls-12" d="M112.89,14.21C69.59,22.84,39.13,46,18.77,85.36,22.61,41.46,69.63,6,112.89,14.21Z" transform="translate(5 5)"/></g></g></svg>