<svg xmlns="http://www.w3.org/2000/svg" xmlns:xlink="http://www.w3.org/1999/xlink" viewBox="0 0 235.78 234"><defs><style>.cls-1{isolation:isolate;}.cls-2{fill:none;stroke:#fff;stroke-miterlimit:10;stroke-width:10px;}.cls-3{fill:url(#linear-gradient);}.cls-4,.cls-7{fill:#fff;}.cls-4{opacity:0.4;mix-blend-mode:screen;}.cls-5{fill:#12100b;}.cls-6{fill:#7c4916;}.cls-8{fill:#e52d12;}</style><linearGradient id="linear-gradient" x1="117.82" y1="11.31" x2="117.82" y2="226.93" gradientUnits="userSpaceOnUse"><stop offset="0" stop-color="#ffda00"/><stop offset="0.38" stop-color="#fcd800"/><stop offset="0.63" stop-color="#f4d100"/><stop offset="0.83" stop-color="#e5c500"/><stop offset="1" stop-color="#d2b500"/></linearGradient></defs><g class="cls-1"><g id="pokemons"><g id="Layer_4" data-name="Layer 4"><ellipse class="cls-2" cx="117.89" cy="117" rx="112.89" ry="112"/></g><circle class="cls-3" cx="117.82" cy="116.85" r="107.51"/><path class="cls-4" d="M112.82,14.06C69.52,22.69,39.06,45.82,18.7,85.22,22.54,41.31,69.56,5.86,112.82,14.06Z" transform="translate(5 5)"/><circle class="cls-5" cx="61.49" cy="90.22" r="17.02"/><path class="cls-6" d="M56.49,86.25a16,16,0,0,0-13,6.59,15,15,0,0,0,25.9,0A16,16,0,0,0,56.49,86.25Z" transform="translate(5 5)"/><circle class="cls-5" cx="61.49" cy="90.22" r="8.53"/><path class="cls-7" d="M51.92,72a6.2,6.2,0,1,0,6.2,6.2A6.2,6.2,0,0,0,51.92,72Z" transform="translate(5 5)"/><circle class="cls-5" cx="169.15" cy="85.22" r="17.02" transform="translate(30.16 213.26) rotate(-67.25)"/><path class="cls-6" d="M169.15,86.25a16,16,0,0,0-12.94,6.59,15,15,0,0,0,25.89,0A16,16,0,0,0,169.15,86.25Z" transform="translate(5 5)"/><circle class="cls-5" cx="174.15" cy="90.22" r="8.53"/><circle class="cls-7" cx="169.58" cy="83.15" r="6.2"/><path class="cls-5" d="M121.39,97.08H104.25c-3.18,0-4.42,3.52-1.77,5l8.57,4.83a3.65,3.65,0,0,0,3.54,0l8.57-4.83C125.82,100.6,124.57,97.08,121.39,97.08Z" transform="translate(5 5)"/><path class="cls-5" d="M130.82,133.4c-4.89,0-11.4-1.67-18-8.28-7.57,7.58-15,8.66-20.06,8.18-6.91-.67-12.19-4.57-14.36-8.14a1.77,1.77,0,0,1,3-1.84c1.65,2.73,6,5.92,11.67,6.46,4.52.43,11.38-.67,18.41-8.41a1.77,1.77,0,0,1,2.62,0c7,7.74,13.89,8.85,18.41,8.41,5.66-.54,10-3.73,11.68-6.46a1.77,1.77,0,0,1,3,1.84c-2.17,3.57-7.45,7.47-14.36,8.14C132.23,133.36,131.55,133.4,130.82,133.4Z" transform="translate(5 5)"/><circle class="cls-8" cx="200.19" cy="139.73" r="20.58"/><circle class="cls-8" cx="30.45" cy="134.73" r="20.58" transform="translate(-81.35 65.99) rotate(-45)"/></g></g></svg>