<svg xmlns="http://www.w3.org/2000/svg" xmlns:xlink="http://www.w3.org/1999/xlink" viewBox="0 0 235.78 234"><defs><style>.cls-1{isolation:isolate;}.cls-2{fill:none;stroke:#fff;stroke-miterlimit:10;stroke-width:10px;}.cls-3{fill:#0d7573;}.cls-4{fill:url(#linear-gradient);}.cls-5{fill:#3d362b;}.cls-6,.cls-8{fill:#fff;}.cls-7{fill:#f5f5f6;}.cls-8{opacity:0.4;mix-blend-mode:screen;}</style><linearGradient id="linear-gradient" x1="112.89" y1="45.94" x2="112.89" y2="219.36" gradientUnits="userSpaceOnUse"><stop offset="0" stop-color="#ffeec5"/><stop offset="0.47" stop-color="#fcecc3"/><stop offset="0.76" stop-color="#f4e4bd"/><stop offset="1" stop-color="#e6d8b4"/></linearGradient></defs><g class="cls-1"><g id="pokemons"><g id="Layer_4" data-name="Layer 4"><ellipse class="cls-2" cx="117.89" cy="117" rx="112.89" ry="112"/></g><circle class="cls-3" cx="117.89" cy="116.85" r="107.51"/><path class="cls-4" d="M155.29,45.94l-42.4,26.37L70.49,45.94C36.27,61.23,12.55,94.45,12.55,133a92.21,92.21,0,0,0,3.79,26.23,107.55,107.55,0,0,0,193.09,0,92.22,92.22,0,0,0,3.8-26.23C213.23,94.45,189.51,61.23,155.29,45.94Z" transform="translate(5 5)"/><path class="cls-5" d="M187,120a2,2,0,0,1-.49,0,115.44,115.44,0,0,0-50.72,0,2.21,2.21,0,1,1-1-4.31,119.67,119.67,0,0,1,52.66,0A2.21,2.21,0,0,1,187,120Z" transform="translate(5 5)"/><path class="cls-5" d="M90.47,120a2.12,2.12,0,0,1-.5,0,115.4,115.4,0,0,0-50.71,0,2.21,2.21,0,0,1-1-4.31,119.72,119.72,0,0,1,52.67,0,2.21,2.21,0,0,1-.48,4.36Z" transform="translate(5 5)"/><path class="cls-6" d="M155.77,159.28l-2.5-11.73a2.9,2.9,0,0,0-5.5-.55l-4.57,10.56Q149.5,158.28,155.77,159.28Z" transform="translate(5 5)"/><path class="cls-7" d="M155.77,159.28l-2.5-11.73a2.9,2.9,0,0,0-3.81-2.14c1.57,1.43,3,4.72,1.9,13.21Z" transform="translate(5 5)"/><path class="cls-6" d="M70,159.28l2.5-11.73A2.9,2.9,0,0,1,78,147l4.56,10.56Q76.29,158.28,70,159.28Z" transform="translate(5 5)"/><path class="cls-7" d="M78,147a2.88,2.88,0,0,0-3.47-1.64c1.75,1.66,3.64,5.14,3.91,12.7,1.38-.17,2.75-.35,4.12-.5Z" transform="translate(5 5)"/><path class="cls-5" d="M156.85,161.52a1.64,1.64,0,0,1-.38,0,253.11,253.11,0,0,0-87.16,0,2.21,2.21,0,1,1-.76-4.35,257.42,257.42,0,0,1,88.68,0,2.21,2.21,0,0,1-.38,4.39Z" transform="translate(5 5)"/><path class="cls-8" d="M112.89,14.06c-43.3,8.63-73.76,31.76-94.12,71.16C22.61,41.31,69.63,5.86,112.89,14.06Z" transform="translate(5 5)"/></g></g></svg>