<svg xmlns="http://www.w3.org/2000/svg" xmlns:xlink="http://www.w3.org/1999/xlink" viewBox="0 0 235.78 234"><defs><style>.cls-1{isolation:isolate;}.cls-2{fill:none;stroke:#fff;stroke-miterlimit:10;stroke-width:10px;}.cls-3{fill:url(#linear-gradient);}.cls-4{fill:#589a9b;}.cls-5{fill:#582e30;}.cls-6{fill:#f18f89;}.cls-7{fill:#bc504f;}.cls-8{fill:#f4f8f7;}.cls-9{fill:#23211c;}.cls-10{fill:#a81a17;}.cls-11{fill:#fff;opacity:0.4;mix-blend-mode:screen;}</style><linearGradient id="linear-gradient" x1="118.15" y1="9.33" x2="118.15" y2="224.35" gradientUnits="userSpaceOnUse"><stop offset="0" stop-color="#a3d7dc"/><stop offset="0.34" stop-color="#a0d5da"/><stop offset="0.55" stop-color="#98ced4"/><stop offset="0.73" stop-color="#89c3c9"/><stop offset="0.88" stop-color="#75b2b9"/><stop offset="1" stop-color="#60a2aa"/></linearGradient></defs><g class="cls-1"><g id="pokemons"><g id="Layer_4" data-name="Layer 4"><ellipse class="cls-2" cx="117.89" cy="117" rx="112.89" ry="112"/></g><circle class="cls-3" cx="118.15" cy="116.84" r="107.51"/><path class="cls-4" d="M190.2,148.8l13.7-1.72a15.81,15.81,0,0,0,1.57-3.53,7,7,0,0,1-1.47,5l-11.64,2.8Z" transform="translate(5 5)"/><path class="cls-4" d="M36.09,148.8l-13.7-1.72a15.81,15.81,0,0,1-1.57-3.53,7,7,0,0,0,1.47,5l11.64,2.8Z" transform="translate(5 5)"/><path class="cls-5" d="M113.15,207.7c-74.79,0-81.45-59.43-81.45-59.43l81.45,9.7,81.44-9.7S187.94,207.7,113.15,207.7Z" transform="translate(5 5)"/><path class="cls-4" d="M118.12,144.7a1.82,1.82,0,1,0,1.81,1.82A1.82,1.82,0,0,0,118.12,144.7Z" transform="translate(5 5)"/><path class="cls-4" d="M108.18,144.7a1.82,1.82,0,1,0,1.81,1.82A1.82,1.82,0,0,0,108.18,144.7Z" transform="translate(5 5)"/><path class="cls-6" d="M113.15,207.7c36.73,0,57-14.34,68.17-28.93-5-10.41-13.29-19.41-23.86-26.08L113.15,158l-44.32-5.28C58.26,159.36,49.94,168.36,45,178.77,56.12,193.36,76.41,207.7,113.15,207.7Z" transform="translate(5 5)"/><path class="cls-7" d="M113.15,163.32c26.12,0,49.36,7.87,64.26,20.11,1.42-1.54,2.71-3.09,3.91-4.66-5-10.41-13.29-19.41-23.86-26.08L113.15,158l-44.32-5.28C58.26,159.36,49.94,168.36,45,178.77q1.8,2.35,3.91,4.66C63.78,171.19,87,163.32,113.15,163.32Z" transform="translate(5 5)"/><path class="cls-8" d="M152.73,120.09c1.84,5,43.86,2.77,46.57-5.1,5.15-15-6.83-62.74-26.66-62.35C152.47,53,144.36,97.31,152.73,120.09Z" transform="translate(5 5)"/><path class="cls-9" d="M168.51,67.49c-6.83,0-12.92,4.73-16.92,12.13-3.1,13.62-2.88,29.53,1.14,40.47,1.2,3.25,19.32,3.45,32.63,1a43.84,43.84,0,0,0,4.95-20.82C190.31,82.18,180.55,67.49,168.51,67.49Z" transform="translate(5 5)"/><path class="cls-10" d="M179.31,122C182,110.56,180.48,97.8,178,91.32c0,0-11.19,6.08-20,4.71A54.34,54.34,0,0,0,155,121.47l.07.12C159.53,123,169.79,123.11,179.31,122Z" transform="translate(5 5)"/><ellipse class="cls-9" cx="173.51" cy="97.55" rx="11.96" ry="18.01"/><ellipse class="cls-8" cx="177.8" cy="91.09" rx="7.67" ry="11.55"/><path class="cls-8" d="M73.56,120.09c-1.84,5-43.86,2.77-46.56-5.1-5.16-15,6.83-62.74,26.65-62.35C73.83,53,81.93,97.31,73.56,120.09Z" transform="translate(5 5)"/><path class="cls-9" d="M57.78,67.49c6.83,0,12.93,4.73,16.92,12.13,3.1,13.62,2.88,29.53-1.14,40.47-1.19,3.25-19.32,3.45-32.63,1a43.84,43.84,0,0,1-5-20.82C36,82.18,45.74,67.49,57.78,67.49Z" transform="translate(5 5)"/><path class="cls-10" d="M47,122c-2.65-11.45-1.16-24.21,1.27-30.69,0,0,11.2,6.08,20,4.71a54.23,54.23,0,0,1,3.07,25.44l-.08.12C66.76,123,56.5,123.11,47,122Z" transform="translate(5 5)"/><ellipse class="cls-9" cx="62.78" cy="97.55" rx="11.96" ry="18.01"/><ellipse class="cls-8" cx="58.49" cy="91.09" rx="7.67" ry="11.55"/><path class="cls-11" d="M113.15,14.05C69.85,22.67,39.38,45.8,19,85.2,22.86,41.29,69.88,5.85,113.15,14.05Z" transform="translate(5 5)"/></g></g></svg>