<?xml version="1.0" encoding="utf-8"?>
<!-- Generator: Adobe Illustrator 24.2.1, SVG Export Plug-In . SVG Version: 6.00 Build 0)  -->
<svg version="1.1" id="Layer_2_1_" xmlns="http://www.w3.org/2000/svg" xmlns:xlink="http://www.w3.org/1999/xlink" x="0px" y="0px"
	 viewBox="0 0 208 498.4" style="enable-background:new 0 0 208 498.4;" xml:space="preserve">
<style type="text/css">
	.st0{fill:#3357A4;}
	.st1{fill:none;stroke:#FFFFFF;stroke-width:6;stroke-miterlimit:10;}
	.st2{fill:#FFFFFF;stroke:#FFFFFF;stroke-width:3;stroke-miterlimit:10;}
</style>
<rect x="0" y="0" class="st0" width="208" height="498.4"/>
<circle class="st1" cx="55.4" cy="442.8" r="46"/>
<circle class="st1" cx="55.4" cy="442.8" r="15.2"/>
<polygon class="st2" points="53.6,458 53.6,488.8 56.9,488.8 56.9,457.9 "/>
<polygon class="st2" points="53.6,397.1 53.6,427.5 56.9,427.5 56.9,397.1 "/>
<circle class="st1" cx="55.3" cy="346.3" r="46"/>
<circle class="st1" cx="55.3" cy="346.3" r="15.2"/>
<polygon class="st2" points="53.5,361.5 53.5,392.3 56.8,392.3 56.8,361.4 "/>
<polygon class="st2" points="53.5,300.6 53.5,330.9 56.8,330.9 56.8,300.6 "/>
<ellipse transform="matrix(0.1602 -0.9871 0.9871 0.1602 -197.8752 265.2255)" class="st1" cx="56.9" cy="248.9" rx="46" ry="46"/>
<ellipse transform="matrix(0.1602 -0.9871 0.9871 0.1602 -197.8753 265.2255)" class="st1" cx="56.9" cy="248.9" rx="15.2" ry="15.2"/>
<polygon class="st2" points="55.1,264.1 55.1,294.9 58.5,294.9 58.5,264 "/>
<polygon class="st2" points="55.1,203.3 55.1,233.6 58.5,233.6 58.5,203.2 "/>
<circle class="st1" cx="56.8" cy="152.4" r="46"/>
<circle class="st1" cx="56.8" cy="152.4" r="15.2"/>
<polygon class="st2" points="55,167.6 55,198.4 58.3,198.4 58.3,167.5 "/>
<polygon class="st2" points="55,106.7 55,137.1 58.3,137.1 58.3,106.7 "/>
<circle class="st1" cx="152.2" cy="442.8" r="46"/>
<circle class="st1" cx="152.2" cy="442.8" r="15.2"/>
<polygon class="st2" points="150.4,458 150.4,488.8 153.7,488.8 153.7,457.9 "/>
<polygon class="st2" points="150.4,397.1 150.4,427.5 153.7,427.5 153.7,397.1 "/>
<circle class="st1" cx="152.1" cy="346.3" r="46"/>
<circle class="st1" cx="152.1" cy="346.3" r="15.2"/>
<polygon class="st2" points="150.3,361.5 150.3,392.3 153.6,392.3 153.6,361.4 "/>
<polygon class="st2" points="150.3,300.6 150.3,330.9 153.6,330.9 153.6,300.6 "/>
<ellipse transform="matrix(0.1602 -0.9871 0.9871 0.1602 -116.5725 360.7855)" class="st1" cx="153.7" cy="248.9" rx="46" ry="46"/>
<ellipse transform="matrix(0.1602 -0.9871 0.9871 0.1602 -116.5725 360.7855)" class="st1" cx="153.7" cy="248.9" rx="15.2" ry="15.2"/>
<polygon class="st2" points="151.9,264.1 151.9,294.9 155.3,294.9 155.3,264 "/>
<polygon class="st2" points="151.9,203.3 151.9,233.6 155.3,233.6 155.3,203.2 "/>
<circle class="st1" cx="153.6" cy="152.4" r="46"/>
<circle class="st1" cx="153.6" cy="152.4" r="15.2"/>
<polygon class="st2" points="151.8,167.6 151.8,198.4 155.2,198.4 155.2,167.5 "/>
<polygon class="st2" points="151.8,106.7 151.8,137.1 155.2,137.1 155.2,106.7 "/>
<circle class="st1" cx="55.4" cy="55.4" r="46"/>
<circle class="st1" cx="55.4" cy="55.4" r="15.2"/>
<polygon class="st2" points="53.6,70.6 53.6,101.4 56.9,101.4 56.9,70.5 "/>
<polygon class="st2" points="53.6,9.8 53.6,40.1 56.9,40.1 56.9,9.7 "/>
<circle class="st1" cx="152.2" cy="55.4" r="46"/>
<circle class="st1" cx="152.2" cy="55.4" r="15.2"/>
<polygon class="st2" points="150.4,70.6 150.4,101.4 153.7,101.4 153.7,70.5 "/>
<polygon class="st2" points="150.4,9.8 150.4,40.1 153.7,40.1 153.7,9.7 "/>
</svg>
