<svg id="Layer_2" data-name="Layer 2" xmlns="http://www.w3.org/2000/svg" viewBox="0 0 498.41 207.96"><defs><style>.cls-1{fill:#3357a4;}.cls-2{fill:none;stroke-width:6px;}.cls-2,.cls-3{stroke:#fff;stroke-miterlimit:10;}.cls-3{fill:#fff;stroke-width:3px;}</style></defs><rect class="cls-1" width="498.41" height="207.96"/><circle class="cls-2" cx="55.62" cy="55.38" r="46"/><circle class="cls-2" cx="55.62" cy="55.38" r="15.22"/><polygon class="cls-3" points="40.4 53.59 9.62 53.59 9.62 56.93 40.51 56.93 40.4 53.59"/><polygon class="cls-3" points="101.26 53.59 70.94 53.59 70.94 56.93 101.3 56.93 101.26 53.59"/><circle class="cls-2" cx="152.14" cy="55.26" r="46"/><circle class="cls-2" cx="152.14" cy="55.26" r="15.22"/><polygon class="cls-3" points="136.92 53.47 106.14 53.47 106.14 56.8 137.03 56.8 136.92 53.47"/><polygon class="cls-3" points="197.78 53.47 167.47 53.47 167.47 56.8 197.82 56.8 197.78 53.47"/><circle class="cls-2" cx="249.51" cy="56.93" r="46"/><circle class="cls-2" cx="249.51" cy="56.93" r="15.22"/><polygon class="cls-3" points="234.29 55.14 203.51 55.14 203.51 58.47 234.4 58.47 234.29 55.14"/><polygon class="cls-3" points="295.15 55.14 264.84 55.14 264.84 58.47 295.19 58.47 295.15 55.14"/><circle class="cls-2" cx="346.03" cy="56.8" r="46"/><circle class="cls-2" cx="346.03" cy="56.8" r="15.22"/><polygon class="cls-3" points="330.81 55.01 300.03 55.01 300.03 58.34 330.92 58.34 330.81 55.01"/><polygon class="cls-3" points="391.67 55.01 361.36 55.01 361.36 58.34 391.71 58.34 391.67 55.01"/><circle class="cls-2" cx="55.62" cy="152.2" r="46"/><circle class="cls-2" cx="55.62" cy="152.2" r="15.22"/><polygon class="cls-3" points="40.4 150.41 9.62 150.41 9.62 153.74 40.51 153.74 40.4 150.41"/><polygon class="cls-3" points="101.26 150.41 70.94 150.41 70.94 153.74 101.3 153.74 101.26 150.41"/><circle class="cls-2" cx="152.14" cy="152.07" r="46"/><circle class="cls-2" cx="152.14" cy="152.07" r="15.22"/><polygon class="cls-3" points="136.92 150.28 106.14 150.28 106.14 153.62 137.03 153.62 136.92 150.28"/><polygon class="cls-3" points="197.78 150.28 167.47 150.28 167.47 153.62 197.82 153.62 197.78 150.28"/><circle class="cls-2" cx="249.51" cy="153.74" r="46"/><circle class="cls-2" cx="249.51" cy="153.74" r="15.22"/><polygon class="cls-3" points="234.29 151.95 203.51 151.95 203.51 155.28 234.4 155.28 234.29 151.95"/><polygon class="cls-3" points="295.15 151.95 264.84 151.95 264.84 155.28 295.19 155.28 295.15 151.95"/><circle class="cls-2" cx="346.03" cy="153.61" r="46"/><circle class="cls-2" cx="346.03" cy="153.61" r="15.22"/><polygon class="cls-3" points="330.81 151.82 300.03 151.82 300.03 155.16 330.92 155.16 330.81 151.82"/><polygon class="cls-3" points="391.67 151.82 361.36 151.82 361.36 155.16 391.71 155.16 391.67 151.82"/><circle class="cls-2" cx="442.99" cy="55.38" r="46"/><circle class="cls-2" cx="442.99" cy="55.38" r="15.22"/><polygon class="cls-3" points="427.77 53.59 396.99 53.59 396.99 56.93 427.88 56.93 427.77 53.59"/><polygon class="cls-3" points="488.63 53.59 458.32 53.59 458.32 56.93 488.67 56.93 488.63 53.59"/><circle class="cls-2" cx="442.99" cy="152.2" r="46"/><circle class="cls-2" cx="442.99" cy="152.2" r="15.22"/><polygon class="cls-3" points="427.77 150.41 396.99 150.41 396.99 153.74 427.88 153.74 427.77 150.41"/><polygon class="cls-3" points="488.63 150.41 458.32 150.41 458.32 153.74 488.67 153.74 488.63 150.41"/></svg>